<?xml version="1.0" encoding="UTF-8"?>
<svg version="1.1" xmlns="http://www.w3.org/2000/svg" width="650" height="290">
<path d="M0 0 C0.67433075 -0.01321289 1.3486615 -0.02642578 2.04342651 -0.04003906 C12.64796571 -0.19983283 21.16885425 1.57200622 30.9375 5.625 C31.2675 5.955 31.5975 6.285 31.9375 6.625 C31.76045551 12.72622535 30.37587984 18.71786726 28.9375 24.625 C28.1640625 24.49222656 27.390625 24.35945313 26.59375 24.22265625 C23.37697822 23.67723826 20.15822873 23.14652715 16.9375 22.625 C16.21433594 22.50769531 15.49117187 22.39039062 14.74609375 22.26953125 C-0.22123589 20.11348585 -15.98865246 21.66292697 -29.125 29.4375 C-31.83658787 32.49897018 -32.13365517 34.56915526 -32.0625 38.625 C-29.31339097 42.8881111 -26.38919279 44.85567891 -21.875 47.0625 C-21.27131592 47.35833984 -20.66763184 47.65417969 -20.0456543 47.95898438 C-15.27211999 50.22591258 -10.38357395 51.95752499 -5.375 53.625 C4.46844681 56.92268699 15.83485355 61.93645265 20.9609375 71.54296875 C24.06890692 79.36991926 24.51302603 88.7678876 21.1875 96.5625 C13.85822308 110.67910026 2.26148764 120.55109537 -12.88671875 125.55859375 C-17.92378291 126.99480986 -22.8772116 127.94865803 -28.0625 128.625 C-28.3925 128.955 -28.7225 129.285 -29.0625 129.625 C-30.74938683 129.73208994 -32.44075777 129.76909302 -34.13101196 129.77890015 C-35.22979172 129.78750061 -36.32857147 129.79610107 -37.46064758 129.80496216 C-38.67713486 129.80922211 -39.89362213 129.81348206 -41.14697266 129.81787109 C-43.05688744 129.83013733 -43.05688744 129.83013733 -45.00538635 129.84265137 C-49.24575671 129.8689338 -53.48613715 129.88420223 -57.7265625 129.8984375 C-59.18887717 129.90379787 -60.65119177 129.90917538 -62.11350632 129.91456985 C-68.20585843 129.93622291 -74.29820786 129.95495094 -80.39058876 129.96619225 C-89.09891402 129.9823672 -97.8067884 130.01535806 -106.51494372 130.07259309 C-112.6467822 130.11150404 -118.7785013 130.13085073 -124.91045988 130.13611281 C-128.5658638 130.13974248 -132.22078759 130.15150214 -135.87605667 130.18421555 C-165.14877791 130.43332501 -165.14877791 130.43332501 -177.0625 124.625 C-178.65041855 123.86381363 -178.65041855 123.86381363 -180.27041626 123.08724976 C-193.38808784 116.5109937 -200.57617826 106.99819811 -205.3359375 93.1328125 C-210.04850745 76.86684525 -205.33792457 59.44302574 -198.0625 44.625 C-197.37800781 43.18447266 -197.37800781 43.18447266 -196.6796875 41.71484375 C-189.47837099 27.98167985 -177.66870087 17.73405998 -164.0625 10.625 C-163.27359375 10.20863281 -162.4846875 9.79226562 -161.671875 9.36328125 C-149.12714738 3.29397958 -135.69127078 2.29497675 -122 2.875 C-120.90324951 2.92092285 -119.80649902 2.9668457 -118.67651367 3.01416016 C-107.74208637 3.55851302 -96.8389272 4.31398188 -87.0625 9.625 C-88.08041923 16.72877673 -89.16155099 23.70011433 -91.0625 30.625 C-93.418234 29.71310297 -95.74159977 28.78191314 -98.01171875 27.671875 C-112.95098171 20.48386338 -129.83907564 21.12630924 -145.3359375 26.3984375 C-157.98358453 32.02534985 -169.34592398 44.38305752 -174.625 57.125 C-178.08927768 66.80508691 -179.06833267 79.88406751 -175.09765625 89.54296875 C-174.75605469 90.23003906 -174.41445313 90.91710937 -174.0625 91.625 C-173.64871094 92.46675781 -173.23492187 93.30851562 -172.80859375 94.17578125 C-168.70356799 101.72589675 -163.824975 106.62712404 -155.54064941 109.2618866 C-149.71834842 110.92120909 -144.18367561 111.04069243 -138.16210938 110.99731445 C-137.01603714 111.00096512 -135.8699649 111.00461578 -134.68916321 111.00837708 C-130.92803798 111.01643502 -127.16735005 111.00291153 -123.40625 110.98828125 C-120.77648926 110.98776207 -118.14672813 110.988282 -115.51696777 110.98979187 C-110.01630513 110.99067175 -104.51576644 110.97965887 -99.01513672 110.96118164 C-92.67918869 110.94001871 -86.34342203 110.93650601 -80.00744581 110.9427436 C-73.88211882 110.94846234 -67.75686511 110.94265532 -61.63154602 110.93157005 C-59.03852086 110.92773379 -56.44549028 110.92656328 -53.85246277 110.9281559 C-50.22250157 110.9285287 -46.59281097 110.9158459 -42.96289062 110.8996582 C-41.90181595 110.90213562 -40.84074127 110.90461304 -39.74751282 110.90716553 C-28.17181036 110.82520138 -17.66364348 109.34773885 -9.125 101 C-6.05481166 97.79693335 -5.11364752 96.40499971 -4.8125 91.8125 C-4.89734093 87.89567717 -5.42867839 85.67035623 -8.0625 82.625 C-13.71911903 78.2877345 -19.60152725 76.30121481 -26.4375 74.5625 C-39.14228174 71.24699775 -52.55017688 67.68095942 -59.8125 55.75 C-63.21506109 47.24359728 -62.1017115 38.4055068 -59.09375 29.87890625 C-53.33793993 17.4144662 -44.22188709 11.06416792 -32.0625 5.625 C-30.37833984 4.82835937 -30.37833984 4.82835937 -28.66015625 4.015625 C-19.31941465 0.34125593 -9.91881327 0.10054926 0 0 Z " fill="#2A307C" transform="translate(568.0625,57.375)"/>
<path d="M0 0 C34.65 0 69.3 0 105 0 C105 7.26 105 14.52 105 22 C77.61 22 50.22 22 22 22 C22 31.57 22 41.14 22 51 C49.39 51 76.78 51 105 51 C105 58.26 105 65.52 105 73 C70.35 73 35.7 73 0 73 C0 48.91 0 24.82 0 0 Z " fill="#2A307A" transform="translate(37,113)"/>
<path d="M0 0 C7.59 0 15.18 0 23 0 C23 33 23 66 23 100 C50.39 100 77.78 100 106 100 C106 107.26 106 114.52 106 122 C71.02 122 36.04 122 0 122 C0 81.74 0 41.48 0 0 Z " fill="#2A307B" transform="translate(173,64)"/>
<path d="M0 0 C7.59 0 15.18 0 23 0 C23 40.26 23 80.52 23 122 C15.41 122 7.82 122 0 122 C0 81.74 0 41.48 0 0 Z " fill="#2A307B" transform="translate(308,65)"/>
<path d="M0 0 C34.65 0 69.3 0 105 0 C105 7.26 105 14.52 105 22 C70.35 22 35.7 22 0 22 C0 14.74 0 7.48 0 0 Z " fill="#2A2F7A" transform="translate(37,65)"/>
<path d="M0 0 C2.05078125 0.03255208 4.1015625 0.06510417 6.15234375 0.09765625 C8.15234375 5.43098958 10.15234375 10.76432292 12.15234375 16.09765625 C12.58148071 15.370625 12.58148071 15.370625 13.01928711 14.62890625 C14.34316836 12.42992602 15.71503679 10.26512821 17.08984375 8.09765625 C17.53908203 7.33453125 17.98832031 6.57140625 18.45117188 5.78515625 C19.88860253 3.56457372 21.12947615 1.80815701 23.15234375 0.09765625 C26.26606268 -0.55451151 29.02453668 -0.40341923 32.15234375 0.09765625 C32.15234375 0.75765625 32.15234375 1.41765625 32.15234375 2.09765625 C31.16234375 2.42765625 30.17234375 2.75765625 29.15234375 3.09765625 C28.14557818 6.11267124 28.14557818 6.11267124 27.52734375 9.72265625 C27.28757812 10.93179688 27.0478125 12.1409375 26.80078125 13.38671875 C26.17768954 16.95260506 25.64094837 20.51148272 25.15234375 24.09765625 C25.81234375 24.09765625 26.47234375 24.09765625 27.15234375 24.09765625 C27.15234375 24.75765625 27.15234375 25.41765625 27.15234375 26.09765625 C23.19234375 26.09765625 19.23234375 26.09765625 15.15234375 26.09765625 C15.15234375 25.43765625 15.15234375 24.77765625 15.15234375 24.09765625 C16.14234375 23.76765625 17.13234375 23.43765625 18.15234375 23.09765625 C19.54279273 19.21903541 20.15234375 16.23303622 20.15234375 12.09765625 C19.53746094 13.10828125 18.92257812 14.11890625 18.2890625 15.16015625 C17.47321978 16.47300661 16.65678265 17.78548772 15.83984375 19.09765625 C15.43572266 19.76539063 15.03160156 20.433125 14.61523438 21.12109375 C13.54099995 22.83288194 12.35293099 24.47199063 11.15234375 26.09765625 C10.16234375 26.09765625 9.17234375 26.09765625 8.15234375 26.09765625 C6.50234375 21.47765625 4.85234375 16.85765625 3.15234375 12.09765625 C2.82234375 15.72765625 2.49234375 19.35765625 2.15234375 23.09765625 C2.81234375 23.42765625 3.47234375 23.75765625 4.15234375 24.09765625 C4.15234375 24.75765625 4.15234375 25.41765625 4.15234375 26.09765625 C0.52234375 26.09765625 -3.10765625 26.09765625 -6.84765625 26.09765625 C-6.84765625 25.43765625 -6.84765625 24.77765625 -6.84765625 24.09765625 C-5.85765625 23.76765625 -4.86765625 23.43765625 -3.84765625 23.09765625 C-2.84089068 20.08264126 -2.84089068 20.08264126 -2.22265625 16.47265625 C-1.98289063 15.26351562 -1.743125 14.054375 -1.49609375 12.80859375 C-0.87300204 9.24270744 -0.33626087 5.68382978 0.15234375 2.09765625 C-0.83765625 1.76765625 -1.82765625 1.43765625 -2.84765625 1.09765625 C-1.84765625 0.09765625 -1.84765625 0.09765625 0 0 Z " fill="#2A307D" transform="translate(251.84765625,212.90234375)"/>
<path d="M0 0 C5.00330085 2.84163131 8.92457418 6.96122253 10.75 12.4375 C11.23819183 18.94359496 11.65462405 24.91716944 7.75 30.4375 C3.9843828 34.69859315 0.42915584 38.06106165 -5.3359375 38.87109375 C-13.08749012 38.88029987 -17.9930156 38.60318179 -23.70703125 33.01171875 C-28.50154177 27.66452691 -29.74251718 23.01883694 -29.5546875 15.99609375 C-28.94385212 10.86664279 -27.10818718 7.1536125 -23.30859375 3.64453125 C-16.2983139 -1.79069493 -8.43563721 -3.80335088 0 0 Z M-22.625 7.875 C-26.46316913 13.92749748 -26.77409727 18.45578973 -25.25 25.4375 C-23.15524731 29.78814021 -20.65844571 32.51859425 -16.3046875 34.7421875 C-11.65940242 36.3141661 -6.8237387 36.35249836 -2.1953125 34.70703125 C2.7449455 32.1096853 5.9918626 28.71191221 7.75 23.4375 C8.48127952 16.58025595 7.95583127 11.97148851 3.75 6.4375 C-0.39060883 2.69123487 -4.27170318 1.61797962 -9.71875 1.2734375 C-15.1569911 1.62591609 -18.89396345 4.04577828 -22.625 7.875 Z " fill="#2A2F78" transform="translate(627.25,29.5625)"/>
<path d="M0 0 C3.96 0 7.92 0 12 0 C12 0.66 12 1.32 12 2 C11.01 2.33 10.02 2.66 9 3 C8.67 4.98 8.34 6.96 8 9 C8.96099609 8.02546875 8.96099609 8.02546875 9.94140625 7.03125 C16.9220933 0.28984135 16.9220933 0.28984135 20.22265625 -0.59765625 C22.125 -0.5625 22.125 -0.5625 25 0 C25 0.66 25 1.32 25 2 C23.171875 3.40234375 23.171875 3.40234375 20.75 4.9375 C17.74158768 6.8595412 14.83166011 8.82429785 12 11 C13.92174691 15.43013235 17.06032698 18.48454954 20.3203125 21.9765625 C22 24 22 24 22 26 C19.14223486 26.53583096 17.74263197 26.78434148 15 26 C11.9589606 23.28686398 9.47002518 20.23348751 7 17 C5.70366379 18.06645115 5.70366379 18.06645115 5.9375 20.5625 C5.958125 21.366875 5.97875 22.17125 6 23 C6.66 23.33 7.32 23.66 8 24 C8 24.66 8 25.32 8 26 C4.04 26 0.08 26 -4 26 C-4 25.34 -4 24.68 -4 24 C-3.28686646 23.32650513 -3.28686646 23.32650513 -2.55932617 22.6394043 C-0.6686775 20.65166266 -0.45096616 19.45648705 -0.05078125 16.76953125 C0.07490234 15.96708984 0.20058594 15.16464844 0.33007812 14.33789062 C0.44802734 13.50451172 0.56597656 12.67113281 0.6875 11.8125 C0.81705078 10.96751953 0.94660156 10.12253906 1.08007812 9.25195312 C1.39772253 7.16961757 1.70032154 5.08499692 2 3 C1.34 2.67 0.68 2.34 0 2 C0 1.34 0 0.68 0 0 Z " fill="#2A307D" transform="translate(314,213)"/>
<path d="M0 0 C6.6 0 13.2 0 20 0 C19.67 2.31 19.34 4.62 19 7 C18.01 7 17.02 7 16 7 C16 5.68 16 4.36 16 3 C13.36 3 10.72 3 8 3 C7.67 5.64 7.34 8.28 7 11 C8.98 11 10.96 11 13 11 C13 10.01 13 9.02 13 8 C13.99 8 14.98 8 16 8 C15.67 10.97 15.34 13.94 15 17 C14.01 17 13.02 17 12 17 C12 16.01 12 15.02 12 14 C10.02 14 8.04 14 6 14 C5.67 16.97 5.34 19.94 5 23 C6.27875 22.896875 7.5575 22.79375 8.875 22.6875 C9.59429687 22.62949219 10.31359375 22.57148438 11.0546875 22.51171875 C13.39519216 22.12606964 13.39519216 22.12606964 15 19 C15.99 19 16.98 19 18 19 C17.34 21.31 16.68 23.62 16 26 C9.73 26 3.46 26 -3 26 C-2.54625 24.618125 -2.0925 23.23625 -1.625 21.8125 C0.24436531 15.63739279 1.14953964 9.38345538 2 3 C1.34 2.67 0.68 2.34 0 2 C0 1.34 0 0.68 0 0 Z " fill="#2A307D" transform="translate(483,213)"/>
<path d="M0 0 C6.6 0 13.2 0 20 0 C19.67 2.31 19.34 4.62 19 7 C18.01 7 17.02 7 16 7 C16 5.68 16 4.36 16 3 C13.36 3 10.72 3 8 3 C7.67 5.64 7.34 8.28 7 11 C8.98 11 10.96 11 13 11 C13 10.01 13 9.02 13 8 C13.99 8 14.98 8 16 8 C15.67 10.97 15.34 13.94 15 17 C14.01 17 13.02 17 12 17 C12 16.01 12 15.02 12 14 C10.02 14 8.04 14 6 14 C5.67 16.97 5.34 19.94 5 23 C6.27875 22.896875 7.5575 22.79375 8.875 22.6875 C9.59429687 22.62949219 10.31359375 22.57148438 11.0546875 22.51171875 C13.39519216 22.12606964 13.39519216 22.12606964 15 19 C15.99 19 16.98 19 18 19 C17.34 21.31 16.68 23.62 16 26 C9.73 26 3.46 26 -3 26 C-2.54625 24.618125 -2.0925 23.23625 -1.625 21.8125 C0.24436531 15.63739279 1.14953964 9.38345538 2 3 C1.34 2.67 0.68 2.34 0 2 C0 1.34 0 0.68 0 0 Z " fill="#2A307D" transform="translate(451,213)"/>
<path d="M0 0 C6.6 0 13.2 0 20 0 C19.67 2.31 19.34 4.62 19 7 C18.01 7 17.02 7 16 7 C16 5.68 16 4.36 16 3 C13.36 3 10.72 3 8 3 C7.67 5.64 7.34 8.28 7 11 C8.98 11 10.96 11 13 11 C13 10.01 13 9.02 13 8 C13.99 8 14.98 8 16 8 C15.67 10.97 15.34 13.94 15 17 C14.01 17 13.02 17 12 17 C12 16.01 12 15.02 12 14 C10.02 14 8.04 14 6 14 C5.67 16.97 5.34 19.94 5 23 C6.27875 22.896875 7.5575 22.79375 8.875 22.6875 C9.59429687 22.62949219 10.31359375 22.57148438 11.0546875 22.51171875 C13.39519216 22.12606964 13.39519216 22.12606964 15 19 C15.99 19 16.98 19 18 19 C17.34 21.31 16.68 23.62 16 26 C9.73 26 3.46 26 -3 26 C-2.54625 24.618125 -2.0925 23.23625 -1.625 21.8125 C0.24436531 15.63739279 1.14953964 9.38345538 2 3 C1.34 2.67 0.68 2.34 0 2 C0 1.34 0 0.68 0 0 Z " fill="#2A307D" transform="translate(341,213)"/>
<path d="M0 0 C1.32 0 2.64 0 4 0 C4.26478149 1.02154175 4.26478149 1.02154175 4.53491211 2.0637207 C5.33470936 5.14692465 6.13608616 8.22971588 6.9375 11.3125 C7.35418945 12.9202832 7.35418945 12.9202832 7.77929688 14.56054688 C8.04677734 15.58857422 8.31425781 16.61660156 8.58984375 17.67578125 C8.83597412 18.62364502 9.08210449 19.57150879 9.33569336 20.5480957 C9.83258072 22.38206843 10.39913787 24.19741361 11 26 C7.37 26 3.74 26 0 26 C0 25.34 0 24.68 0 24 C0.66 23.67 1.32 23.34 2 23 C2 21.68 2 20.36 2 19 C-0.97 18.67 -3.94 18.34 -7 18 C-7.66 19.98 -8.32 21.96 -9 24 C-8.34 24 -7.68 24 -7 24 C-7 24.66 -7 25.32 -7 26 C-10.3 26 -13.6 26 -17 26 C-17 25.34 -17 24.68 -17 24 C-16.30003906 23.33613281 -15.60007812 22.67226562 -14.87890625 21.98828125 C-10.34649147 17.64105848 -7.51546081 11.88835427 -4.37304688 6.50976562 C-3.61411133 5.25776367 -3.61411133 5.25776367 -2.83984375 3.98046875 C-2.38988037 3.21629639 -1.93991699 2.45212402 -1.47631836 1.66479492 C-0.9891333 1.1154126 -0.50194824 0.56603027 0 0 Z M-1 8 C-3.28692024 11.23764755 -3.28692024 11.23764755 -4 15 C-2.35 15 -0.7 15 1 15 C0.67 12.69 0.34 10.38 0 8 C-0.33 8 -0.66 8 -1 8 Z " fill="#2A307D" transform="translate(518,213)"/>
<path d="M0 0 C1.32 0 2.64 0 4 0 C4.26478149 1.02154175 4.26478149 1.02154175 4.53491211 2.0637207 C5.33470936 5.14692465 6.13608616 8.22971588 6.9375 11.3125 C7.35418945 12.9202832 7.35418945 12.9202832 7.77929688 14.56054688 C8.04677734 15.58857422 8.31425781 16.61660156 8.58984375 17.67578125 C8.83597412 18.62364502 9.08210449 19.57150879 9.33569336 20.5480957 C9.83258072 22.38206843 10.39913787 24.19741361 11 26 C7.37 26 3.74 26 0 26 C0 25.34 0 24.68 0 24 C0.66 23.67 1.32 23.34 2 23 C2 21.68 2 20.36 2 19 C-0.97 18.67 -3.94 18.34 -7 18 C-7.66 19.98 -8.32 21.96 -9 24 C-8.34 24 -7.68 24 -7 24 C-7 24.66 -7 25.32 -7 26 C-10.3 26 -13.6 26 -17 26 C-17 25.34 -17 24.68 -17 24 C-16.30003906 23.33613281 -15.60007812 22.67226562 -14.87890625 21.98828125 C-10.34649147 17.64105848 -7.51546081 11.88835427 -4.37304688 6.50976562 C-3.61411133 5.25776367 -3.61411133 5.25776367 -2.83984375 3.98046875 C-2.38988037 3.21629639 -1.93991699 2.45212402 -1.47631836 1.66479492 C-0.9891333 1.1154126 -0.50194824 0.56603027 0 0 Z M-1 8 C-3.28692024 11.23764755 -3.28692024 11.23764755 -4 15 C-2.35 15 -0.7 15 1 15 C0.67 12.69 0.34 10.38 0 8 C-0.33 8 -0.66 8 -1 8 Z " fill="#2A307D" transform="translate(297,213)"/>
<path d="M0 0 C0.80824219 0.10183594 1.61648438 0.20367187 2.44921875 0.30859375 C3.06410156 0.39238281 3.67898438 0.47617188 4.3125 0.5625 C5.35699911 3.69599732 5.24673645 4.55218256 4.3125 7.5625 C3.3225 7.5625 2.3325 7.5625 1.3125 7.5625 C0.6525 6.2425 -0.0075 4.9225 -0.6875 3.5625 C-3.13974694 3.66863836 -3.13974694 3.66863836 -5.6875 4.5625 C-7.06216625 7.03886012 -7.06216625 7.03886012 -7.6875 9.5625 C-6.98882813 9.68367187 -6.29015625 9.80484375 -5.5703125 9.9296875 C-4.66023437 10.09726563 -3.75015625 10.26484375 -2.8125 10.4375 C-1.90757812 10.59992188 -1.00265625 10.76234375 -0.0703125 10.9296875 C2.3125 11.5625 2.3125 11.5625 4.3125 13.5625 C4.97033864 17.69748572 4.50396887 19.26966526 2.1875 22.8125 C-0.90969155 25.77503105 -2.49909465 26.82336964 -6.6875 27.5625 C-9.42426004 27.41898094 -11.97655572 27.02990419 -14.6875 26.5625 C-15.48703138 23.27553767 -15.78408936 21.85226808 -14.6875 18.5625 C-13.6975 18.5625 -12.7075 18.5625 -11.6875 18.5625 C-11.3575 19.8825 -11.0275 21.2025 -10.6875 22.5625 C-8.24242066 23.43574262 -7.01049678 23.66401327 -4.5 22.875 C-2.2507134 21.24620625 -2.22061571 20.20653854 -1.6875 17.5625 C-2.39777344 17.28535156 -3.10804688 17.00820312 -3.83984375 16.72265625 C-4.75894531 16.36042969 -5.67804687 15.99820313 -6.625 15.625 C-7.54152344 15.26535156 -8.45804688 14.90570313 -9.40234375 14.53515625 C-11.6875 13.5625 -11.6875 13.5625 -12.6875 12.5625 C-13.0625 9.3125 -13.0625 9.3125 -12.6875 5.5625 C-8.8410786 0.78046258 -6.03413681 -0.78706132 0 0 Z " fill="#2A307D" transform="translate(546.6875,212.4375)"/>
<path d="M0 0 C0.80824219 0.10183594 1.61648438 0.20367187 2.44921875 0.30859375 C3.06410156 0.39238281 3.67898438 0.47617188 4.3125 0.5625 C5.35699911 3.69599732 5.24673645 4.55218256 4.3125 7.5625 C3.3225 7.5625 2.3325 7.5625 1.3125 7.5625 C0.6525 6.2425 -0.0075 4.9225 -0.6875 3.5625 C-3.13974694 3.66863836 -3.13974694 3.66863836 -5.6875 4.5625 C-7.06216625 7.03886012 -7.06216625 7.03886012 -7.6875 9.5625 C-6.98882812 9.68367187 -6.29015625 9.80484375 -5.5703125 9.9296875 C-4.66023438 10.09726563 -3.75015625 10.26484375 -2.8125 10.4375 C-1.90757812 10.59992188 -1.00265625 10.76234375 -0.0703125 10.9296875 C2.3125 11.5625 2.3125 11.5625 4.3125 13.5625 C4.97033864 17.69748572 4.50396887 19.26966526 2.1875 22.8125 C-0.90969155 25.77503105 -2.49909465 26.82336964 -6.6875 27.5625 C-9.42426004 27.41898094 -11.97655572 27.02990419 -14.6875 26.5625 C-15.48703138 23.27553767 -15.78408936 21.85226808 -14.6875 18.5625 C-13.6975 18.5625 -12.7075 18.5625 -11.6875 18.5625 C-11.3575 19.8825 -11.0275 21.2025 -10.6875 22.5625 C-8.24242066 23.43574262 -7.01049678 23.66401327 -4.5 22.875 C-2.2507134 21.24620625 -2.22061571 20.20653854 -1.6875 17.5625 C-2.39777344 17.28535156 -3.10804688 17.00820312 -3.83984375 16.72265625 C-4.75894531 16.36042969 -5.67804688 15.99820313 -6.625 15.625 C-7.54152344 15.26535156 -8.45804687 14.90570313 -9.40234375 14.53515625 C-11.6875 13.5625 -11.6875 13.5625 -12.6875 12.5625 C-13.0625 9.3125 -13.0625 9.3125 -12.6875 5.5625 C-8.8410786 0.78046258 -6.03413681 -0.78706132 0 0 Z " fill="#2A307D" transform="translate(375.6875,212.4375)"/>
<path d="M0 0 C6.27 0 12.54 0 19 0 C18.34 2.31 17.68 4.62 17 7 C16.34 7 15.68 7 15 7 C15 5.68 15 4.36 15 3 C12.69 3 10.38 3 8 3 C7.67 5.64 7.34 8.28 7 11 C8.65 11 10.3 11 12 11 C12.33 10.01 12.66 9.02 13 8 C13.66 8 14.32 8 15 8 C15.125 14.625 15.125 14.625 14 18 C13.01 18 12.02 18 11 18 C11 16.68 11 15.36 11 14 C9.35 14 7.7 14 6 14 C5.67 17.3 5.34 20.6 5 24 C5.99 24 6.98 24 8 24 C8 24.66 8 25.32 8 26 C3.71 26 -0.58 26 -5 26 C-5 25.34 -5 24.68 -5 24 C-4.01 23.67 -3.02 23.34 -2 23 C-0.99473303 20.21632128 -0.99473303 20.21632128 -0.375 16.875 C-0.12878906 15.70324219 0.11742187 14.53148437 0.37109375 13.32421875 C1.0218593 9.88445796 1.59575133 6.47653855 2 3 C1.34 2.67 0.68 2.34 0 2 C0 1.34 0 0.68 0 0 Z " fill="#2A307D" transform="translate(430,213)"/>
<path d="M0 0 C2.64 0 5.28 0 8 0 C9.32 2.97 10.64 5.94 12 9 C15.53705325 5.585469 15.53705325 5.585469 18.5 1.6875 C20 0 20 0 22.6875 -0.25 C23.450625 -0.1675 24.21375 -0.085 25 0 C23.42306662 3.68812835 21.0907101 6.26886506 18.4375 9.25 C14.46473324 13.99312698 12.88367827 16.8349484 13 23 C13.66 23.33 14.32 23.66 15 24 C15 24.66 15 25.32 15 26 C11.04 26 7.08 26 3 26 C3 25.34 3 24.68 3 24 C4.32 23.67 5.64 23.34 7 23 C7.60670868 15.47681236 6.15741968 10.34951369 2 4 C1.34 3.67 0.68 3.34 0 3 C0 2.01 0 1.02 0 0 Z " fill="#2A307D" transform="translate(554,213)"/>
<path d="M0 0 C1.65322266 0.01740234 1.65322266 0.01740234 3.33984375 0.03515625 C4.99693359 0.04869141 4.99693359 0.04869141 6.6875 0.0625 C7.54214844 0.07410156 8.39679688 0.08570313 9.27734375 0.09765625 C9.27734375 0.75765625 9.27734375 1.41765625 9.27734375 2.09765625 C8.28734375 2.42765625 7.29734375 2.75765625 6.27734375 3.09765625 C5.27321721 5.91586479 5.27321721 5.91586479 4.65234375 9.28515625 C4.29269531 10.97705078 4.29269531 10.97705078 3.92578125 12.703125 C3.32875492 15.82852187 2.78263948 18.95624223 2.27734375 22.09765625 C3.55609375 22.15953125 4.83484375 22.22140625 6.15234375 22.28515625 C6.87164062 22.31996094 7.5909375 22.35476562 8.33203125 22.390625 C9.29496094 22.24560547 9.29496094 22.24560547 10.27734375 22.09765625 C10.93734375 21.10765625 11.59734375 20.11765625 12.27734375 19.09765625 C13.26734375 19.09765625 14.25734375 19.09765625 15.27734375 19.09765625 C14.94734375 21.40765625 14.61734375 23.71765625 14.27734375 26.09765625 C7.67734375 26.09765625 1.07734375 26.09765625 -5.72265625 26.09765625 C-5.26890625 24.55078125 -4.81515625 23.00390625 -4.34765625 21.41015625 C-2.59846948 15.04344799 -1.60585963 8.63336125 -0.72265625 2.09765625 C-1.71265625 1.76765625 -2.70265625 1.43765625 -3.72265625 1.09765625 C-2.72265625 0.09765625 -2.72265625 0.09765625 0 0 Z " fill="#2A307D" transform="translate(396.72265625,212.90234375)"/>
<path d="M0 0 C3.96 0 7.92 0 12 0 C12 0.66 12 1.32 12 2 C11.01 2.33 10.02 2.66 9 3 C8.49395076 5.39469729 7.99500483 7.79051717 7.5 10.1875 C7.28537109 11.19780273 7.28537109 11.19780273 7.06640625 12.22851562 C6.31930158 15.87509793 5.82647718 19.27648957 6 23 C6.66 23.33 7.32 23.66 8 24 C8 24.66 8 25.32 8 26 C4.04 26 0.08 26 -4 26 C-4 25.34 -4 24.68 -4 24 C-3.28686646 23.32650513 -3.28686646 23.32650513 -2.55932617 22.6394043 C-0.6686775 20.65166266 -0.45096616 19.45648705 -0.05078125 16.76953125 C0.07490234 15.96708984 0.20058594 15.16464844 0.33007812 14.33789062 C0.44802734 13.50451172 0.56597656 12.67113281 0.6875 11.8125 C0.81705078 10.96751953 0.94660156 10.12253906 1.08007812 9.25195312 C1.39772253 7.16961757 1.70032154 5.08499692 2 3 C1.34 2.67 0.68 2.34 0 2 C0 1.34 0 0.68 0 0 Z " fill="#2A307D" transform="translate(416,213)"/>
<path d="M0 0 C11.47136564 -0.37004405 11.47136564 -0.37004405 13.875 1.3125 C15.55634713 3.8345207 15.19651668 6.05224987 15 9 C13.02 9.99 13.02 9.99 11 11 C11.495 11.94875 11.99 12.8975 12.5 13.875 C14 17 14 17 14 19 C11.00675737 17.9024777 10.15389099 17.32317108 8.75 14.375 C8.5025 13.59125 8.255 12.8075 8 12 C6.35 12 4.7 12 3 12 C3 14.31 3 16.62 3 19 C2.01 19 1.02 19 0 19 C0 12.73 0 6.46 0 0 Z M3 2 C3 4.31 3 6.62 3 9 C7.65052872 9.26932521 7.65052872 9.26932521 12 8 C11.62095792 4.70924004 11.62095792 4.70924004 10 2 C7.66702567 1.95907063 5.33294775 1.95758277 3 2 Z " fill="#2A2F79" transform="translate(612,39)"/>
<path d="M0 0 C1.65 0 3.3 0 5 0 C4.67 1.65 4.34 3.3 4 5 C2.35 4.67 0.7 4.34 -1 4 C-0.67 2.68 -0.34 1.36 0 0 Z " fill="#2A307D" transform="translate(596,234)"/>
<path d="M0 0 C1.65 0 3.3 0 5 0 C4.67 1.65 4.34 3.3 4 5 C2.35 4.67 0.7 4.34 -1 4 C-0.67 2.68 -0.34 1.36 0 0 Z " fill="#2A307D" transform="translate(586,234)"/>
<path d="M0 0 C1.65 0 3.3 0 5 0 C4.67 1.65 4.34 3.3 4 5 C2.35 4.67 0.7 4.34 -1 4 C-0.67 2.68 -0.34 1.36 0 0 Z " fill="#2A307D" transform="translate(576,234)"/>
</svg>
