<?xml version="1.0" standalone="no"?>
<!DOCTYPE svg PUBLIC "-//W3C//DTD SVG 20010904//EN"
 "http://www.w3.org/TR/2001/REC-SVG-20010904/DTD/svg10.dtd">
<svg version="1.0" xmlns="http://www.w3.org/2000/svg"
 width="1263.000000pt" height="842.000000pt" viewBox="0 0 1263.000000 842.000000"
 preserveAspectRatio="xMidYMid meet">

<g transform="translate(0.000000,842.000000) scale(0.100000,-0.100000)"
fill="#000000" stroke="none">
<path d="M4590 8397 c-23 -20 -82 -61 -398 -275 -59 -39 -106 -76 -105 -82 2
-5 -5 -6 -14 -3 -12 5 -14 3 -8 -7 5 -9 4 -11 -3 -6 -6 4 -40 -15 -74 -42 -35
-26 -100 -72 -146 -102 -80 -52 -82 -54 -65 -74 18 -20 18 -20 -9 -3 -17 11
-29 13 -33 6 -4 -5 -25 -22 -47 -37 -23 -15 -51 -34 -63 -42 -12 -8 -52 -35
-88 -59 -37 -24 -64 -47 -62 -51 3 -5 -7 -13 -23 -18 -15 -5 -36 -18 -48 -28
-11 -11 -27 -23 -36 -29 -86 -54 -147 -99 -143 -105 3 -4 -3 -7 -13 -6 -9 0
-16 -5 -14 -12 1 -8 -2 -10 -8 -7 -6 4 -22 -5 -36 -20 -13 -14 -24 -23 -24
-20 0 3 -24 -12 -52 -33 -29 -21 -91 -64 -138 -96 -47 -32 -112 -78 -145 -102
-33 -25 -78 -57 -100 -72 -22 -15 -89 -62 -150 -104 -60 -43 -123 -87 -140
-98 -88 -62 -258 -192 -245 -188 8 3 24 1 34 -5 16 -8 18 -6 13 7 -7 18 8 22
18 6 4 -7 11 -7 18 -2 7 5 26 12 42 15 77 15 155 41 155 52 0 6 18 18 40 25
21 7 37 17 34 21 -3 5 0 9 5 9 6 0 11 7 11 15 0 8 -6 15 -12 15 -7 0 -2 6 12
13 14 7 36 20 50 29 14 9 33 14 43 13 13 -2 19 5 24 26 5 28 34 55 46 43 9 -9
78 42 69 51 -4 4 0 6 9 3 9 -4 20 2 27 13 7 10 19 19 27 19 14 0 20 12 16 34
-1 5 7 6 18 3 13 -3 18 -1 15 8 -5 12 17 24 52 31 18 3 64 36 64 45 0 5 8 9
19 9 11 0 21 9 24 21 3 12 10 18 16 14 6 -3 11 -1 11 5 0 7 7 10 15 7 8 -4 17
-1 21 5 5 7 2 8 -6 3 -9 -5 -11 -4 -6 3 4 7 16 12 28 12 16 0 18 3 9 14 -10
12 -8 14 13 12 17 -2 28 4 37 21 7 13 18 21 26 19 7 -3 25 9 40 27 15 18 40
39 56 46 15 8 27 21 27 28 0 21 28 46 45 39 23 -9 73 23 117 75 22 27 48 49
56 49 8 0 24 10 36 23 11 12 40 30 63 41 29 13 40 23 36 33 -5 12 -1 14 15 9
15 -5 25 -1 34 14 7 12 29 31 48 43 19 11 47 34 62 49 14 15 35 28 46 28 28 0
36 16 15 30 -14 8 -8 10 27 5 32 -4 41 -3 30 4 -13 9 -12 12 5 25 11 8 23 12
28 9 12 -8 37 17 37 38 0 11 7 19 15 19 15 0 86 31 95 41 3 3 19 12 37 20 18
7 37 23 43 34 6 11 33 36 61 55 27 19 58 42 67 51 9 9 31 24 47 33 17 10 22
15 13 12 -10 -3 -18 -1 -18 4 0 6 9 10 20 10 11 0 29 14 42 30 12 17 28 28 34
26 7 -3 15 2 18 10 3 8 17 19 31 24 24 9 35 30 15 30 -5 0 -10 -4 -10 -10 0
-5 -6 -10 -12 -10 -7 0 -2 10 12 23 13 13 36 22 50 22 26 -1 50 11 50 26 0 5
-5 9 -11 9 -5 0 -7 -4 -4 -10 3 -5 2 -10 -4 -10 -23 0 -20 20 4 26 14 3 25 10
25 15 0 16 -25 9 -50 -14z m-390 -345 c0 -4 -9 -13 -20 -20 -23 -14 -26 -8 -7
13 13 16 27 19 27 7z m-760 -506 c0 -2 -7 -7 -16 -10 -8 -3 -12 -2 -9 4 6 10
25 14 25 6z m-655 -506 c3 -6 -1 -7 -9 -4 -18 7 -21 14 -7 14 6 0 13 -4 16
-10z m-45 -20 c0 -5 -4 -10 -9 -10 -6 0 -13 5 -16 10 -3 6 1 10 9 10 9 0 16
-4 16 -10z"/>
<path d="M12602 8408 c6 -18 28 -21 28 -4 0 9 -7 16 -16 16 -9 0 -14 -5 -12
-12z"/>
<path d="M8405 7690 c-93 -32 -215 -72 -270 -89 -55 -17 -109 -36 -120 -41
-11 -5 -45 -16 -75 -25 -84 -23 -85 -25 -50 -73 17 -23 34 -42 39 -42 5 0 13
-9 16 -20 3 -11 14 -20 23 -20 9 0 28 -16 41 -35 13 -19 27 -35 32 -35 14 0
10 11 -16 46 -36 48 -12 54 30 7 40 -45 58 -40 19 6 -19 23 -24 35 -16 43 8 8
18 2 36 -18 14 -16 26 -32 26 -35 0 -11 30 -19 30 -9 0 4 -11 22 -25 38 -30
36 -31 42 -5 42 11 0 20 -4 20 -9 0 -13 58 -76 64 -70 3 3 -8 24 -24 46 -44
60 -18 70 31 12 44 -52 60 -48 24 5 -29 42 -30 46 -12 46 6 0 25 -16 40 -36
37 -46 48 -37 12 11 -27 35 -27 36 -9 50 17 13 21 12 34 -7 33 -48 47 -61 58
-54 9 5 4 18 -14 42 -20 25 -23 34 -11 34 8 0 21 -10 30 -22 25 -39 54 -68 60
-62 8 8 -2 33 -25 67 -11 15 -15 27 -9 27 6 0 23 -18 37 -40 45 -68 76 -43 33
26 -11 19 -16 34 -11 34 6 0 20 -16 32 -35 12 -19 31 -40 42 -46 18 -10 19 -8
13 13 -4 12 -15 35 -26 51 -11 15 -15 27 -10 27 5 0 17 -12 27 -27 23 -36 40
-53 53 -53 12 0 -2 55 -20 76 -7 8 -9 17 -6 20 3 3 19 -15 36 -40 20 -29 37
-43 46 -40 13 5 12 11 -1 42 -33 78 -31 79 20 9 20 -28 31 -36 39 -28 8 8 5
24 -11 56 -12 25 -18 45 -14 45 9 0 64 -92 81 -137 7 -17 19 -34 26 -37 15 -6
8 22 -20 73 -7 14 -24 48 -36 74 -13 27 -31 53 -41 58 -10 5 -18 14 -18 20 0
5 -5 15 -11 22 -5 7 -19 27 -29 45 -11 17 -25 32 -32 31 -7 -1 -89 -27 -183
-59z"/>
<path d="M9944 7672 c7 -12 27 -414 47 -975 7 -184 16 -322 20 -315 5 8 9 -14
9 -54 0 -36 4 -68 10 -70 5 -1 13 -34 16 -73 4 -38 8 -77 9 -85 2 -8 4 -21 4
-28 1 -7 5 -11 9 -8 4 2 9 -7 10 -22 1 -14 7 -31 12 -36 6 -6 10 -18 10 -28 0
-10 5 -18 11 -18 6 0 9 -8 7 -18 -3 -12 2 -24 13 -31 13 -7 19 -23 19 -46 0
-19 4 -35 8 -35 4 0 8 61 9 136 1 76 6 141 10 145 4 4 40 11 78 15 90 9 119
23 48 24 -29 0 -53 4 -53 9 0 13 -54 21 -61 9 -19 -30 -28 358 -10 405 6 16 7
26 2 23 -17 -11 -20 66 -4 107 19 48 29 57 61 57 12 0 33 6 45 14 12 8 45 17
72 21 86 11 85 10 85 70 0 30 -4 57 -10 60 -5 3 -10 24 -10 46 0 21 5 39 10
39 6 0 10 20 10 45 0 31 -4 45 -12 44 -37 -5 -39 0 -37 84 l2 82 -36 3 c-39 3
-43 -2 -37 -66 1 -22 -1 -23 -62 -20 -55 3 -63 6 -64 23 -1 11 -2 72 -3 135
-1 89 -4 111 -13 102 -24 -24 -38 -13 -38 27 0 31 -4 41 -20 46 -15 5 -20 15
-20 45 0 43 -27 77 -80 105 -30 16 -85 21 -76 7z m73 -264 c-3 -8 -6 -5 -6 6
-1 11 2 17 5 13 3 -3 4 -12 1 -19z m53 -134 c0 -8 -4 -12 -10 -9 -5 3 -10 10
-10 16 0 5 5 9 10 9 6 0 10 -7 10 -16z m30 -120 c0 -8 -4 -14 -10 -14 -5 0
-10 9 -10 21 0 11 5 17 10 14 6 -3 10 -13 10 -21z m-93 -531 c-2 -16 -4 -3 -4
27 0 30 2 43 4 28 2 -16 2 -40 0 -55z m10 -190 c-3 -10 -5 -4 -5 12 0 17 2 24
5 18 2 -7 2 -21 0 -30z"/>
<path d="M10360 7378 c0 -16 5 -28 10 -28 13 0 13 20 0 40 -8 12 -10 9 -10
-12z"/>
<path d="M8655 7290 c-3 -5 -1 -10 4 -10 6 0 11 5 11 10 0 6 -2 10 -4 10 -3 0
-8 -4 -11 -10z"/>
<path d="M5640 7276 c0 -2 11 -6 25 -8 13 -3 22 -1 19 3 -5 9 -44 13 -44 5z"/>
<path d="M8440 7240 l-25 -8 28 -1 c15 -1 27 4 27 9 0 6 -1 10 -2 9 -2 -1 -14
-5 -28 -9z"/>
<path d="M11410 7234 c0 -8 5 -12 10 -9 6 3 10 10 10 16 0 5 -4 9 -10 9 -5 0
-10 -7 -10 -16z"/>
<path d="M11396 7177 c3 -10 9 -15 12 -12 3 3 0 11 -7 18 -10 9 -11 8 -5 -6z"/>
<path d="M1202 7057 c-36 -37 -41 -50 -15 -40 12 5 15 2 10 -9 -9 -24 4 -30
25 -11 17 15 18 15 18 -5 0 -24 19 -29 38 -10 9 9 12 8 12 -5 0 -19 15 -23 25
-7 10 16 25 12 19 -5 -7 -18 17 -20 34 -3 9 9 12 7 12 -10 0 -23 24 -30 36
-11 4 8 9 7 15 -2 8 -11 12 -10 24 5 15 20 40 12 31 -10 -6 -17 6 -18 21 -3
13 13 36 3 28 -12 -9 -13 9 -11 24 4 10 10 15 8 26 -6 8 -12 15 -14 20 -7 10
16 25 2 18 -18 -5 -14 -3 -15 8 -4 20 18 32 15 26 -8 -6 -24 5 -26 23 -5 7 8
18 15 24 15 14 0 56 37 56 49 0 5 -21 14 -47 21 -27 7 -77 21 -113 30 -58 17
-312 86 -351 96 -8 2 -29 -11 -47 -29z"/>
<path d="M12013 7033 c9 -2 25 -2 35 0 9 3 1 5 -18 5 -19 0 -27 -2 -17 -5z"/>
<path d="M11945 7020 c-13 -5 -14 -9 -5 -9 8 0 24 4 35 9 13 5 14 9 5 9 -8 0
-24 -4 -35 -9z"/>
<path d="M12584 6791 c-17 -10 -40 -21 -50 -24 -17 -4 -17 -5 -1 -6 46 -3 -6
-41 -57 -41 -12 0 -33 -10 -46 -22 -13 -13 -36 -30 -50 -38 -95 -53 -132 -70
-150 -70 -11 0 -20 -7 -20 -16 0 -8 -4 -12 -10 -9 -5 3 -10 0 -10 -9 0 -8 -13
-17 -29 -21 -16 -3 -35 -13 -42 -21 -6 -8 -19 -14 -29 -14 -9 0 -20 -3 -24 -7
-4 -5 -11 -8 -14 -9 -4 0 -20 -6 -35 -12 -16 -7 -37 -12 -48 -12 -10 0 -19 -4
-19 -9 0 -5 -16 -15 -36 -21 -36 -12 -57 -26 -98 -65 -12 -11 -25 -19 -30 -17
-8 3 -35 -27 -36 -40 0 -3 16 -12 35 -18 33 -11 34 -12 17 -28 -9 -9 -13 -14
-9 -10 5 3 25 -9 43 -28 19 -18 38 -33 43 -31 5 1 17 -7 28 -18 25 -27 55 -43
122 -65 31 -10 55 -23 54 -29 -2 -6 -4 -16 -5 -22 -2 -6 4 -14 12 -16 13 -4
13 -3 0 6 -9 7 -10 11 -3 11 19 0 27 -21 29 -70 0 -25 4 -55 8 -67 6 -18 3
-23 -9 -23 -9 0 -31 -6 -48 -14 -18 -8 -77 -24 -132 -36 -55 -12 -119 -32
-141 -43 -42 -21 -42 -21 -20 -37 11 -10 28 -19 36 -22 10 -3 4 -10 -18 -23
-18 -11 -32 -25 -32 -32 0 -7 -9 -13 -20 -13 -11 0 -23 -7 -26 -15 -4 -8 -11
-15 -18 -15 -13 0 -28 -16 -73 -80 l-33 -45 9 -400 c16 -728 32 -1878 31
-2260 0 -76 1 -80 23 -82 12 0 38 -5 57 -10 l35 -10 -48 -4 c-26 -2 -52 0 -57
5 -14 14 -19 -207 -7 -294 4 -31 9 -36 43 -46 35 -10 37 -12 17 -18 -13 -4
-33 -4 -44 -1 -19 6 -21 4 -16 -16 3 -13 9 -46 12 -74 4 -27 16 -64 26 -81 21
-35 25 -54 7 -36 -23 23 -28 11 -28 -67 0 -88 11 -108 56 -97 24 6 25 10 19
44 -4 20 -13 49 -22 65 -12 23 -12 32 -2 41 9 8 10 8 5 -1 -3 -6 -2 -14 4 -18
5 -3 10 1 10 9 0 10 9 16 23 16 25 0 28 -7 30 -77 1 -23 5 -37 9 -30 5 7 8 0
9 -18 1 -16 3 -34 3 -40 3 -20 18 -35 36 -35 16 0 18 6 15 38 -1 20 -4 38 -5
40 -7 6 -5 28 2 38 5 7 2 17 -7 24 -8 7 -15 18 -15 25 0 7 -7 18 -15 25 -8 7
-12 16 -10 21 3 4 -1 25 -10 45 -17 41 -16 47 9 38 11 -4 15 -13 10 -27 -5
-15 -3 -19 9 -14 9 3 18 -1 22 -11 3 -9 5 -17 3 -17 -1 0 8 -11 21 -25 12 -14
95 -146 183 -294 87 -147 164 -273 169 -280 5 -6 57 -92 116 -191 58 -99 115
-196 128 -215 12 -19 51 -84 85 -145 35 -60 70 -119 77 -130 11 -16 13 153 13
980 l-1 1000 -176 125 c-168 119 -314 221 -525 366 -59 40 -101 63 -109 58 -7
-4 -10 -3 -5 4 3 6 -11 25 -34 43 l-40 32 0 133 0 133 31 -9 c18 -5 39 -16 49
-25 9 -8 26 -15 38 -15 12 0 40 -6 62 -12 38 -12 40 -15 34 -43 -3 -16 -15
-38 -26 -47 -17 -15 -17 -18 -4 -18 9 0 16 -4 16 -10 0 -10 -38 -23 -61 -20
-26 4 -39 0 -39 -11 0 -8 5 -8 15 1 8 7 15 8 15 3 0 -5 21 -14 48 -20 26 -6
71 -17 100 -25 29 -9 55 -11 58 -7 3 5 30 9 61 9 52 0 59 3 102 43 25 23 45
45 44 49 -2 4 15 17 36 28 74 37 59 89 -26 90 -34 0 -43 -4 -48 -21 l-7 -21
-15 21 c-17 25 -26 26 -46 7 -17 -18 -59 -10 -88 17 -18 17 -41 22 -118 28
l-96 7 110 -2 c98 -3 107 -2 80 10 -16 7 -55 13 -85 14 -30 0 -89 9 -130 19
-70 17 -75 20 -72 43 2 13 -7 36 -19 52 -21 26 -21 29 -6 74 15 45 15 46 25
22 7 -17 11 -20 11 -8 1 11 6 15 16 12 8 -4 22 -1 30 6 8 6 19 9 25 5 5 -3 10
-2 10 2 0 12 221 30 345 28 55 -1 168 -11 250 -23 83 -12 153 -22 158 -22 4 0
7 623 7 1385 0 762 -3 1385 -7 1385 -5 0 -22 -9 -39 -19z m-887 -2333 c-3 -7
-5 -2 -5 12 0 14 2 19 5 13 2 -7 2 -19 0 -25z m0 -75 c-3 -10 -5 -2 -5 17 0
19 2 27 5 18 2 -10 2 -26 0 -35z m28 -173 c-3 -5 -15 -10 -26 -10 -10 0 -19 5
-19 10 0 6 12 10 26 10 14 0 23 -4 19 -10z m-58 -142 c-3 -8 -6 -5 -6 6 -1 11
2 17 5 13 3 -3 4 -12 1 -19z m93 -187 c0 -6 -4 -13 -10 -16 -5 -3 -10 1 -10 9
0 9 5 16 10 16 6 0 10 -4 10 -9z m465 -241 c4 -6 -5 -10 -20 -10 -15 0 -24 4
-20 10 3 6 12 10 20 10 8 0 17 -4 20 -10z m-548 -22 c-3 -8 -6 -5 -6 6 -1 11
2 17 5 13 3 -3 4 -12 1 -19z m518 -8 c-11 -5 -27 -9 -35 -9 -13 -1 -13 0 0 9
8 5 24 9 35 9 l20 0 -20 -9z m-518 -77 c-2 -16 -4 -5 -4 22 0 28 2 40 4 28 2
-13 2 -35 0 -50z m113 -120 c19 -20 28 -33 20 -30 -47 17 -70 34 -70 50 0 25
11 21 50 -20z m-50 -193 c12 0 -4 -53 -18 -58 -14 -4 -35 45 -26 60 3 5 13 7
21 4 8 -3 18 -6 23 -6z m447 -392 c-2 -13 -4 -5 -4 17 -1 22 1 32 4 23 2 -10
2 -28 0 -40z m250 -180 c-1 -40 -3 -8 -3 72 0 80 2 112 3 73 2 -40 2 -106 0
-145z m-567 -259 c0 -6 -4 -7 -10 -4 -5 3 -10 11 -10 16 0 6 5 7 10 4 6 -3 10
-11 10 -16z m-127 -166 c9 -8 -25 -33 -36 -26 -4 3 -3 11 4 19 13 15 22 18 32
7z"/>
<path d="M2468 6753 c7 -3 16 -2 19 1 4 3 -2 6 -13 5 -11 0 -14 -3 -6 -6z"/>
<path d="M2060 6618 l-35 -30 50 27 c61 33 63 35 39 35 -10 -1 -35 -15 -54
-32z"/>
<path d="M1365 6451 c-10 -17 11 -21 31 -6 18 14 18 14 -3 15 -12 0 -24 -4
-28 -9z"/>
<path d="M1308 6413 c7 -3 16 -2 19 1 4 3 -2 6 -13 5 -11 0 -14 -3 -6 -6z"/>
<path d="M1248 6371 c-10 -10 -18 -22 -18 -28 0 -17 -32 -39 -82 -58 -27 -10
-48 -22 -48 -26 0 -5 -9 -9 -20 -9 -11 0 -20 -7 -20 -15 0 -8 -4 -15 -9 -15
-5 0 -16 -6 -24 -14 -18 -18 -77 -28 -77 -13 0 6 -6 4 -12 -4 -7 -8 -31 -28
-53 -44 -22 -16 -54 -43 -71 -59 -37 -38 -73 -62 -86 -58 -5 1 -7 -6 -3 -17 7
-24 -11 -37 -30 -21 -10 8 -15 8 -22 -4 -5 -8 -25 -16 -46 -18 -20 -1 -37 -6
-37 -10 0 -4 -7 -5 -15 -2 -8 4 -15 1 -15 -5 0 -28 -250 -62 -467 -63 l-93 -1
0 -64 c0 -47 4 -65 15 -69 8 -4 15 -10 15 -15 0 -11 130 -139 142 -139 5 0 6
-5 2 -12 -4 -7 -3 -8 4 -4 15 9 52 -29 52 -53 0 -11 9 -23 20 -26 11 -3 26
-16 32 -28 12 -21 14 -27 17 -54 0 -7 10 -13 20 -13 11 0 23 -9 26 -20 3 -11
11 -20 16 -20 13 0 11 -37 -2 -45 -7 -5 -5 -13 6 -25 11 -12 13 -20 6 -25 -6
-3 -11 -13 -11 -21 0 -8 4 -13 9 -9 12 7 26 -15 15 -24 -15 -10 -77 -188 -90
-256 -3 -20 -8 -34 -10 -32 -3 2 -14 37 -25 78 -22 83 -90 248 -101 249 -5 0
-8 -9 -8 -20 0 -20 -1 -20 -26 -3 l-27 17 25 -39 c14 -22 28 -51 32 -65 6 -20
3 -18 -18 11 -14 20 -32 39 -41 42 -12 5 -11 -1 5 -33 11 -22 20 -54 20 -71
l0 -33 -30 29 c-17 16 -30 26 -30 22 0 -11 49 -178 56 -188 3 -5 3 -9 0 -9 -3
0 -23 26 -45 58 -21 32 -46 64 -55 71 -14 12 -16 9 -16 -29 0 -29 10 -61 31
-99 l31 -56 -31 33 c-44 46 -40 18 12 -81 75 -146 108 -226 101 -251 -3 -13
-1 -27 5 -30 17 -11 13 -36 -5 -36 -13 0 -14 -3 -4 -15 10 -12 1 -15 -62 -17
l-73 -3 0 -405 c0 -223 4 -413 8 -423 5 -10 5 -26 2 -35 -4 -9 -6 -51 -5 -92
3 -81 3 -85 -6 -237 -5 -89 -4 -104 10 -109 9 -3 16 -11 16 -16 0 -6 40 -51
89 -102 127 -130 191 -199 191 -207 0 -3 -60 -14 -132 -24 -73 -9 -143 -19
-156 -22 l-22 -5 0 -949 c0 -522 3 -949 8 -949 4 0 71 19 150 42 l142 43 1 80
c0 44 4 102 7 130 l7 50 55 18 c30 10 98 34 150 52 52 19 116 36 143 40 31 4
47 11 47 21 0 8 -4 14 -10 14 -5 0 -10 7 -10 15 0 17 35 21 45 5 3 -5 1 -10
-4 -10 -6 0 -11 -4 -11 -10 0 -12 33 -14 44 -2 4 4 26 12 49 17 50 13 56 30
29 88 -42 88 -81 174 -105 232 -47 113 -98 230 -122 280 -32 67 -55 122 -55
129 0 3 -29 66 -65 141 -36 74 -65 139 -65 144 0 5 22 23 49 41 27 17 54 37
61 45 6 7 56 23 112 36 90 20 109 29 176 78 l75 55 -29 23 c-33 26 -70 38
-164 54 -70 12 -60 15 -323 -81 -59 -21 -80 -20 -71 4 3 8 29 17 62 21 73 9
113 26 163 68 34 29 49 35 105 40 65 5 97 18 75 31 -17 11 -13 26 8 26 12 0
21 9 25 24 7 28 0 50 -27 90 l-20 28 24 -7 c13 -4 29 -10 36 -12 19 -7 28 47
13 81 -17 41 -19 117 -3 123 9 4 12 96 13 376 0 205 2 424 5 487 2 63 5 288 5
500 1 211 4 415 7 452 6 73 23 84 23 15 l0 -42 45 3 c30 3 45 0 45 -8 0 -6 5
-8 10 -5 6 3 10 0 10 -8 0 -8 7 -17 15 -21 19 -7 19 -26 0 -26 -8 0 -15 -4
-15 -10 0 -5 6 -7 14 -4 18 7 56 -25 56 -48 0 -10 5 -18 10 -18 6 0 10 11 10
25 0 14 -4 25 -10 25 -15 0 -12 27 3 33 9 3 13 -3 13 -17 -1 -20 4 -21 79 -24
72 -2 84 0 114 22 18 14 39 22 45 20 7 -3 18 5 24 18 l11 23 0 -22 c1 -34 15
-28 40 17 29 52 35 55 79 34 23 -11 67 -18 117 -20 44 -2 98 -6 120 -10 42 -7
85 -30 85 -46 0 -13 30 -42 47 -44 25 -4 186 -172 179 -189 -4 -11 1 -15 19
-15 22 0 25 -5 25 -33 0 -27 8 -40 39 -65 l39 -32 7 30 6 29 80 0 79 0 1 -32
c1 -18 1 -159 -1 -314 l-2 -283 23 0 c13 0 175 7 359 15 439 19 608 30 617 39
3 3 6 130 7 283 l1 278 -100 2 c-55 1 -272 8 -482 14 -317 10 -383 14 -383 26
0 8 -4 12 -8 9 -4 -2 -14 -1 -22 5 -11 6 0 9 35 10 28 0 44 3 38 6 -17 6 -16
23 1 23 12 0 19 13 24 43 2 10 29 37 38 37 4 0 17 10 30 23 64 61 102 81 206
111 32 10 57 20 57 24 -3 21 2 42 10 38 5 -3 9 -24 9 -47 1 -23 4 -45 9 -50 4
-4 42 -9 83 -10 69 -2 75 -1 78 18 5 31 66 24 98 -11 14 -14 47 -37 74 -51 28
-14 50 -30 50 -35 0 -6 7 -10 15 -10 8 0 15 -6 15 -14 0 -13 14 -23 34 -24 5
0 12 -6 16 -12 10 -16 111 -15 138 1 12 8 22 21 23 29 0 10 3 9 8 -4 6 -17 9
-15 20 12 7 18 28 41 47 52 18 12 47 34 65 51 17 16 41 32 53 35 11 3 32 20
46 39 28 37 53 45 145 45 55 0 65 -3 93 -30 18 -17 38 -27 46 -24 12 4 16 -8
22 -56 7 -67 15 -75 85 -82 30 -3 36 1 49 30 14 32 16 33 56 27 l42 -6 3 143
c1 79 3 204 4 278 1 74 7 163 14 198 6 35 10 71 7 80 -3 9 -7 43 -11 75 -4 42
-2 57 7 57 7 0 5 5 -5 11 -14 8 -21 7 -30 -5 -11 -15 -15 -14 -49 1 -21 9 -38
20 -38 25 0 4 -9 5 -20 2 -91 -20 -110 -26 -110 -36 0 -5 -4 -7 -9 -3 -5 3
-12 1 -16 -5 -10 -17 -118 -12 -144 7 -14 9 -21 11 -17 5 10 -17 -9 -15 -24 2
-6 8 -18 12 -26 9 -8 -3 -14 0 -14 6 0 13 -42 32 -80 36 -14 1 -45 7 -70 13
-25 7 -62 14 -82 17 -44 7 -51 24 -10 26 29 2 18 4 -120 28 -77 13 -118 27
-118 39 0 5 -18 9 -39 10 -28 1 -48 9 -66 28 -19 18 -31 23 -48 18 -12 -3 -24
-7 -27 -8 -3 0 -35 6 -72 13 -66 14 -81 24 -55 35 8 3 6 9 -8 18 -31 19 -65
21 -65 4 0 -19 -88 -18 -108 2 -7 6 -22 12 -32 12 -10 0 -20 6 -23 14 -4 10
-19 12 -56 8 -45 -4 -51 -2 -51 14 0 16 -2 16 -10 4 -7 -12 -12 -12 -34 -1
-13 8 -33 14 -44 15 -11 0 -33 12 -50 26 -25 21 -39 25 -72 22 -27 -3 -44 -10
-48 -21 -8 -23 -19 -28 -52 -23 -24 3 -30 9 -30 28 0 21 -5 24 -39 24 -22 0
-41 4 -43 9 -1 5 -17 11 -35 14 -43 7 -53 14 -54 40 -1 17 -2 18 -6 4 -4 -16
-6 -16 -33 3 -31 22 -50 26 -50 10 0 -18 -18 -11 -25 10 -3 11 -15 20 -26 20
-18 0 -24 17 -22 68 1 6 -3 12 -8 12 -5 0 -9 -4 -9 -9 0 -5 -8 -11 -17 -15
-19 -6 -37 -16 -139 -79 -34 -20 -67 -37 -73 -37 -6 0 -11 -4 -11 -8 0 -5 -12
-14 -26 -21 -14 -6 -76 -44 -137 -85 -62 -41 -143 -91 -182 -112 -38 -21 -72
-41 -75 -44 -3 -4 -18 -10 -35 -14 -16 -4 -25 -3 -20 1 14 11 18 40 6 47 -5 3
-7 14 -4 24 2 10 -2 24 -9 30 -11 9 -27 3 -71 -28 -35 -23 -53 -41 -46 -46 8
-5 7 -9 -2 -16 -10 -6 -7 -7 9 -3 30 9 62 -18 55 -46 -11 -39 -183 -149 -183
-116 0 7 4 17 10 23 5 5 11 22 12 37 1 15 6 27 11 27 4 0 5 5 2 10 -4 6 -1 17
5 25 7 8 10 15 7 15 -11 0 -123 -64 -168 -97 l-46 -33 -7 -502 c-4 -277 -9
-523 -11 -548 -2 -25 -9 -394 -15 -820 -6 -426 -14 -782 -17 -790 -4 -8 -9
-40 -12 -70 -3 -30 -10 -55 -16 -55 -39 0 -42 336 -11 1350 9 270 17 723 19
1008 4 514 4 517 25 540 12 13 22 27 22 31 0 5 19 27 41 50 23 22 57 60 77 84
19 23 40 42 47 42 7 0 19 7 26 16 7 9 37 31 65 49 29 19 58 43 64 54 6 12 25
28 43 37 18 9 52 35 77 58 42 38 89 77 132 108 19 15 28 60 13 64 -5 1 -18 -5
-27 -15z m587 -171 c-3 -5 -10 -10 -16 -10 -5 0 -9 5 -9 10 0 6 7 10 16 10 8
0 12 -4 9 -10z m-30 -20 c3 -5 -1 -10 -10 -10 -9 0 -13 5 -10 10 3 6 8 10 10
10 2 0 7 -4 10 -10z m-995 -140 c0 -13 -7 -20 -20 -20 -25 0 -26 16 -2 29 23
14 22 14 22 -9z m1471 -78 c-8 -26 -10 -27 -71 -25 -35 1 -73 6 -84 12 -12 6
-31 11 -44 13 -12 2 -23 8 -22 13 0 12 129 12 178 0 26 -6 32 -5 32 9 0 10 4
15 9 12 5 -4 6 -18 2 -34z m-1251 -96 c0 -3 -4 -8 -10 -11 -5 -3 -10 -1 -10 4
0 6 5 11 10 11 6 0 10 -2 10 -4z m57 -2 c-3 -3 -12 -4 -19 -1 -8 3 -5 6 6 6
11 1 17 -2 13 -5z m-12 -32 c-3 -3 -11 0 -18 7 -9 10 -8 11 6 5 10 -3 15 -9
12 -12z m35 -22 c0 -5 -5 -10 -11 -10 -5 0 -7 5 -4 10 3 6 8 10 11 10 2 0 4
-4 4 -10z m1197 4 c-3 -3 4 -15 15 -26 20 -20 20 -22 3 -35 -22 -16 -38 -16
-87 -2 -27 7 -38 15 -38 29 0 12 7 20 18 20 11 0 13 3 5 8 -6 4 12 8 39 9 28
1 48 0 45 -3z m63 -54 c0 -5 -4 -10 -10 -10 -5 0 -10 5 -10 10 0 6 5 10 10 10
6 0 10 -4 10 -10z m-700 -70 c11 -7 7 -10 -18 -10 -20 0 -31 4 -27 10 8 13 26
13 45 0z m169 -99 c24 -15 2 -31 -43 -31 -41 0 -74 19 -59 33 9 10 86 8 102
-2z m1821 -36 c0 -15 -102 -13 -108 3 -3 10 9 12 52 10 31 -2 56 -7 56 -13z
m-601 -126 c44 -16 33 -34 -20 -34 -33 0 -45 4 -47 17 -2 9 5 18 15 21 10 3
18 5 19 6 1 0 15 -4 33 -10z m956 -149 c0 -18 -52 -27 -67 -12 -17 17 2 33 35
30 20 -2 32 -8 32 -18z m-2998 -312 c-3 -8 -6 -5 -6 6 -1 11 2 17 5 13 3 -3 4
-12 1 -19z m-774 -1175 c-7 -2 -21 -2 -30 0 -10 3 -4 5 12 5 17 0 24 -2 18 -5z
m47 -113 c0 -5 -7 -10 -15 -10 -8 0 -15 5 -15 10 0 6 7 10 15 10 8 0 15 -4 15
-10z m110 -70 c0 -5 -5 -10 -11 -10 -5 0 -7 5 -4 10 3 6 8 10 11 10 2 0 4 -4
4 -10z m-145 -130 c3 -5 1 -10 -4 -10 -6 0 -11 5 -11 10 0 6 2 10 4 10 3 0 8
-4 11 -10z m54 -76 c2 -2 -10 -4 -27 -4 -18 0 -32 5 -32 10 0 9 47 4 59 -6z
m88 -20 c-3 -3 -12 -4 -19 -1 -8 3 -5 6 6 6 11 1 17 -2 13 -5z m-97 -284 c0
-5 -7 -10 -15 -10 -8 0 -15 5 -15 10 0 6 7 10 15 10 8 0 15 -4 15 -10z m355
-426 c27 -66 32 -64 -147 -63 l-163 0 135 48 c74 27 141 49 147 50 7 0 20 -15
28 -35z m104 10 c3 -3 -5 -15 -17 -27 -19 -19 -24 -20 -32 -7 -5 8 -10 23 -10
34 0 15 5 17 27 11 16 -4 30 -9 32 -11z m46 -33 c-2 -5 -14 -11 -26 -14 -20
-5 -20 -5 -4 13 17 18 41 18 30 1z m25 -26 c0 -2 -10 -10 -22 -16 -21 -11 -22
-11 -9 4 13 16 31 23 31 12z m-270 -45 c-36 -12 -72 -12 -65 0 3 6 25 10 48 9
36 -1 38 -2 17 -9z m150 -9 c0 -10 -50 -21 -89 -20 -24 0 -24 1 9 14 41 16 80
19 80 6z m-275 -41 c3 -5 -3 -10 -15 -10 -12 0 -18 5 -15 10 3 6 10 10 15 10
5 0 12 -4 15 -10z m-105 -20 c0 -5 -4 -10 -10 -10 -5 0 -10 5 -10 10 0 6 5 10
10 10 6 0 10 -4 10 -10z m20 -307 c34 -87 50 -126 61 -146 12 -23 6 -32 -16
-23 -12 4 -14 12 -9 28 3 13 3 20 -1 16 -13 -12 -73 116 -73 156 0 48 11 39
38 -31z m80 -203 c0 -5 -4 -10 -10 -10 -5 0 -10 5 -10 10 0 6 5 10 10 10 6 0
10 -4 10 -10z m44 -106 c3 -9 6 -22 6 -31 0 -8 7 -22 17 -31 15 -15 14 -17 -8
-23 -32 -8 -41 -2 -34 22 4 12 2 19 -7 19 -8 1 -7 5 5 14 12 9 14 16 8 21 -13
8 -14 25 -2 25 5 0 12 -7 15 -16z m76 -176 c0 -11 9 -31 20 -45 25 -32 16 -42
-72 -71 -45 -16 -80 -21 -105 -17 -21 3 -32 2 -25 -1 6 -3 10 -10 6 -15 -8
-14 -40 -11 -53 5 -10 11 6 19 89 46 79 25 100 36 100 50 0 11 -4 22 -10 25
-19 12 -11 43 13 47 30 5 37 1 37 -24z m133 -107 c29 -49 23 -61 -28 -61 -25
0 -45 -4 -45 -9 0 -11 35 -21 73 -21 15 0 27 -4 27 -8 0 -5 9 -19 20 -32 26
-30 21 -43 -20 -51 -42 -9 -90 22 -90 58 0 13 -6 23 -12 23 -7 0 -20 5 -28 10
-13 9 -13 11 -1 19 22 14 -30 25 -85 17 -51 -7 -52 8 -1 23 18 5 61 21 97 35
36 14 67 25 70 25 3 1 13 -12 23 -28z m-153 -106 c10 -12 7 -15 -17 -21 -15
-4 -37 -13 -48 -20 -11 -6 -40 -15 -65 -18 l-45 -5 55 19 c52 18 53 19 17 17
-46 -4 -44 12 4 29 47 17 84 17 99 -1z m-165 -25 c-11 -5 -29 -9 -40 -9 -17
-1 -17 1 -5 9 8 5 26 9 40 9 23 0 23 -1 5 -9z m221 -22 c4 -6 2 -14 -4 -16 -7
-2 -10 -7 -8 -10 2 -4 -15 -8 -38 -9 -22 -1 -66 -9 -96 -17 -32 -8 -61 -11
-70 -6 -10 6 -3 10 25 15 22 4 58 15 80 25 77 34 99 37 111 18z m-241 -28 c-3
-5 -13 -10 -21 -10 -8 0 -12 5 -9 10 3 6 13 10 21 10 8 0 12 -4 9 -10z m163
-32 c-4 -12 -75 -33 -152 -43 -38 -6 -47 -4 -44 6 3 9 30 17 74 22 38 4 80 11
94 16 14 5 27 10 28 10 2 1 2 -4 0 -11z m132 -23 c0 -8 -59 -35 -77 -35 -16 1
-15 3 6 20 20 18 71 28 71 15z m-120 -10 c0 -14 -65 -35 -107 -34 l-48 1 65
18 c70 19 90 23 90 15z"/>
<path d="M1655 6330 c-3 -5 -2 -10 4 -10 5 0 13 5 16 10 3 6 2 10 -4 10 -5 0
-13 -4 -16 -10z"/>
<path d="M1620 6305 c-11 -13 -10 -14 4 -9 9 3 16 10 16 15 0 13 -6 11 -20 -6z"/>
<path d="M11424 6278 c-13 -19 11 -24 83 -15 110 12 116 27 9 24 -48 -1 -90
-5 -92 -9z"/>
<path d="M10740 6220 c-12 -8 -9 -10 13 -10 15 0 27 5 27 10 0 13 -20 13 -40
0z"/>
<path d="M10260 6168 c0 -3 25 -8 55 -10 30 -1 51 0 47 4 -10 8 -102 15 -102
6z"/>
<path d="M1214 6024 c-18 -14 -18 -15 4 -4 12 6 22 13 22 15 0 8 -5 6 -26 -11z"/>
<path d="M1120 5951 c0 -6 4 -13 10 -16 6 -3 7 1 4 9 -7 18 -14 21 -14 7z"/>
<path d="M7810 5910 c0 -5 9 -10 20 -10 11 0 20 5 20 10 0 6 -9 10 -20 10 -11
0 -20 -4 -20 -10z"/>
<path d="M4575 5875 c-102 -25 -107 -31 -30 -40 39 -5 88 -9 110 -10 22 0 58
-5 80 -9 29 -5 45 -3 60 7 18 14 17 16 -25 27 -123 34 -145 37 -195 25z"/>
<path d="M4213 5676 c5 -13 3 -17 -7 -13 -8 3 -16 1 -18 -5 -7 -19 4 -78 13
-72 5 3 9 1 9 -5 0 -6 7 -8 15 -5 22 9 20 87 -2 105 -15 12 -16 12 -10 -5z"/>
<path d="M4815 5479 c-55 -11 -114 -21 -132 -22 -17 -1 -35 -5 -39 -10 -4 -4
-21 -7 -38 -7 -17 0 -38 -5 -46 -10 -12 -8 -10 -10 11 -10 14 0 29 -4 35 -8 5
-5 47 -16 94 -25 163 -32 194 -36 208 -25 7 6 31 8 55 5 26 -4 35 -3 22 2 -16
7 -9 10 30 15 28 4 68 11 89 17 54 15 186 24 186 13 0 -5 24 -8 52 -7 53 1 41
-2 -40 -13 -24 -3 -41 -8 -39 -11 5 -5 180 14 205 22 10 4 10 10 2 25 -11 21
-7 24 38 20 16 -1 22 4 22 19 0 17 -6 21 -35 21 -19 0 -35 -4 -35 -10 0 -5 -9
-10 -20 -10 -11 0 -20 5 -20 10 0 6 -7 10 -15 10 -8 0 -15 -5 -15 -11 0 -7
-21 -9 -64 -6 -41 3 -66 1 -68 -5 -6 -17 -138 -10 -190 10 -14 6 -35 11 -45
10 -10 0 -38 2 -63 5 -27 4 -86 -2 -145 -14z m635 -37 c0 -13 -12 -22 -22 -16
-10 6 -1 24 13 24 5 0 9 -4 9 -8z"/>
<path d="M5554 5462 c4 -7 13 -12 21 -12 7 0 15 -5 17 -12 3 -7 7 -6 11 5 4
11 1 17 -7 17 -8 0 -22 3 -32 7 -12 4 -15 3 -10 -5z"/>
<path d="M5508 5413 c7 -3 16 -2 19 1 4 3 -2 6 -13 5 -11 0 -14 -3 -6 -6z"/>
<path d="M5850 5388 l-25 -11 25 -7 c14 -4 24 -12 22 -19 -1 -7 2 -10 8 -6 5
3 10 -2 10 -12 0 -15 2 -15 9 -3 6 8 8 17 5 21 -2 4 5 10 16 14 11 3 20 13 20
21 0 17 -52 18 -90 2z"/>
<path d="M4800 5340 c0 -5 7 -7 15 -4 8 4 15 8 15 10 0 2 -7 4 -15 4 -8 0 -15
-4 -15 -10z"/>
<path d="M4860 5326 c0 -9 8 -12 27 -8 25 5 25 6 8 13 -29 11 -35 10 -35 -5z"/>
<path d="M5875 5300 c-4 -7 -9 -37 -10 -67 -1 -40 3 -59 17 -75 21 -25 23 -39
5 -32 -7 2 -26 -7 -41 -21 -15 -14 -22 -25 -17 -25 6 0 11 -7 11 -15 0 -9 11
-27 25 -41 24 -24 37 -93 16 -79 -12 7 -33 -29 -24 -39 3 -3 21 -6 40 -6 l33
0 0 94 c0 52 -4 96 -10 98 -5 2 -11 47 -14 102 -4 95 -15 132 -31 106z"/>
<path d="M4575 5279 l-20 -8 20 -1 c11 -1 -19 -10 -67 -20 -95 -20 -143 -39
-98 -40 14 0 33 -8 42 -17 9 -10 31 -33 51 -51 38 -36 47 -71 47 -191 1 -72 9
-68 30 14 7 28 20 58 29 68 43 49 78 78 101 84 14 3 30 10 36 15 18 13 24 -38
26 -226 1 -141 3 -156 8 -86 l6 85 2 -90 c2 -67 5 -86 13 -72 10 17 27 107 34
182 2 22 9 72 15 110 6 39 14 97 18 130 4 33 11 65 15 71 10 16 -80 28 -190
25 -72 -2 -92 1 -95 12 -2 10 -9 12 -23 6z"/>
<path d="M10190 5279 c0 -21 16 -42 28 -38 6 2 2 14 -9 28 -11 13 -19 18 -19
10z"/>
<path d="M5143 5273 c9 -2 25 -2 35 0 9 3 1 5 -18 5 -19 0 -27 -2 -17 -5z"/>
<path d="M7910 5264 c-177 -16 -210 -21 -211 -37 -1 -7 -1 -117 1 -244 1 -164
-1 -233 -9 -233 -7 0 -11 27 -12 73 -2 298 -5 406 -11 413 -4 4 -78 -1 -165
-10 -87 -9 -237 -24 -333 -33 l-175 -16 3 -726 c2 -556 5 -729 15 -738 7 -7
74 -16 172 -22 88 -6 293 -20 455 -31 162 -11 402 -27 533 -35 132 -8 243 -18
248 -21 5 -3 6 1 3 9 -4 10 3 13 26 9 22 -3 35 1 45 14 14 18 16 18 39 -8 20
-22 34 -28 83 -31 l58 -3 -66 -2 c-58 -2 -67 -5 -72 -23 -9 -36 2 -49 43 -49
21 0 45 -3 54 -6 13 -5 16 1 16 29 0 35 0 36 53 42 29 4 64 5 78 2 13 -2 0 -5
-28 -6 -52 -1 -53 -2 -53 -30 0 -17 4 -32 9 -35 5 -3 82 -10 170 -16 l162 -9
57 25 c49 22 54 27 37 34 -13 6 -5 7 25 4 25 -2 155 -11 290 -20 135 -8 274
-22 309 -30 35 -9 75 -13 90 -9 17 4 21 3 13 -3 -10 -7 -3 -12 25 -17 21 -5
42 -7 47 -6 5 1 13 -3 17 -10 5 -10 13 -8 33 5 14 9 26 21 26 26 0 6 5 10 11
10 8 0 10 -19 6 -63 -7 -76 -15 -100 -33 -93 -19 7 -43 -37 -47 -86 -4 -48
-17 -77 -43 -99 -15 -13 -16 -12 -9 11 7 23 7 23 -9 7 -10 -9 -14 -21 -11 -27
4 -6 1 -9 -6 -8 -6 2 -35 -27 -63 -64 -28 -37 -52 -65 -54 -63 -2 2 37 65 87
140 50 75 91 140 91 146 0 7 -23 9 -60 7 -42 -2 -60 1 -60 9 0 18 -76 25 -155
14 -55 -7 -75 -6 -92 5 -14 9 -24 10 -28 4 -9 -14 -53 -12 -100 4 -75 25 -95
28 -95 11 0 -8 -7 -15 -15 -15 -8 0 -15 7 -15 16 0 13 -14 15 -97 13 -54 -1
-103 -6 -109 -10 -6 -5 -16 0 -24 11 -13 18 -14 18 -54 -2 -23 -11 -38 -17
-34 -13 10 10 -33 32 -77 41 -25 4 -35 3 -35 -6 0 -9 -10 -11 -31 -6 -34 6
-106 -24 -116 -49 -3 -8 -14 -15 -25 -15 -14 0 -18 -5 -15 -15 5 -11 0 -13
-24 -8 -30 6 -70 -8 -97 -34 -7 -7 -22 -13 -33 -13 -10 0 -19 -3 -19 -7 0 -5
-20 -17 -45 -28 -24 -10 -47 -25 -49 -32 -3 -7 -17 -13 -31 -13 -14 0 -25 -4
-25 -10 0 -5 -8 -10 -19 -10 -23 0 -47 -25 -32 -35 11 -6 212 -30 346 -41 51
-4 66 -3 55 5 -8 6 -28 11 -45 11 -22 0 -26 3 -15 9 9 6 37 5 69 -1 50 -10 52
-12 31 -23 -22 -12 -20 -13 21 -19 24 -3 112 -13 194 -21 202 -20 505 -61 585
-80 36 -8 76 -15 90 -15 41 -1 52 -14 56 -71 3 -46 0 -56 -22 -76 -14 -13 -38
-23 -54 -23 -16 0 -31 -4 -35 -10 -4 -6 -15 -6 -31 0 -14 6 -30 7 -36 4 -6 -4
-8 -2 -5 3 11 18 -21 23 -35 6 -7 -8 -14 -33 -15 -55 -2 -33 1 -41 17 -45 23
-6 24 -8 10 -34 -8 -14 -7 -19 1 -19 8 0 8 -4 -1 -15 -7 -8 -16 -13 -20 -10
-5 3 -25 -19 -46 -47 -20 -29 -41 -54 -46 -56 -4 -2 -8 -8 -8 -13 0 -13 -63
-98 -73 -99 -5 0 -5 10 -2 22 6 17 4 20 -9 15 -12 -5 -16 0 -16 17 0 14 6 26
13 29 9 4 9 7 0 18 -17 17 -36 -1 -123 -116 -38 -49 -78 -100 -90 -113 -21
-22 -22 -31 -18 -129 3 -84 1 -106 -10 -110 -11 -5 -11 -7 -1 -14 10 -6 14
-71 17 -276 2 -147 5 -270 8 -272 2 -2 4 106 4 241 0 234 1 246 21 263 20 19
20 19 10 -8 -7 -18 -13 -326 -17 -870 -3 -463 -7 -848 -10 -854 -7 -24 -24
-13 -24 15 1 134 -12 1050 -15 1060 -7 19 -23 14 -27 -9 -2 -17 -8 -13 -31 22
-15 24 -25 50 -22 59 6 20 -47 70 -74 70 -13 0 -19 5 -15 14 8 20 -20 33 -89
41 -37 5 -61 13 -64 22 -5 11 -16 14 -46 9 -24 -4 -45 -2 -53 5 -8 6 -14 8
-14 4 0 -4 -6 -2 -14 4 -11 9 -16 9 -22 0 -4 -8 -3 -9 4 -5 7 4 12 2 12 -3 0
-6 -11 -11 -25 -11 -14 0 -25 4 -25 8 0 4 -9 8 -19 9 -17 1 -19 -3 -14 -35 l6
-37 -22 19 c-15 13 -18 23 -11 30 5 5 10 14 10 18 0 12 -34 10 -47 -3 -12 -12
-52 4 -66 27 -6 10 -23 12 -67 7 -42 -4 -60 -2 -60 6 0 6 -3 10 -7 10 -25 -4
-54 3 -67 16 -8 8 -26 15 -39 15 -41 0 -87 12 -81 21 8 13 -39 21 -96 17 -27
-1 -50 0 -50 4 0 4 -18 12 -40 18 -22 6 -40 15 -40 21 0 6 -4 8 -8 5 -5 -3
-21 6 -36 20 -22 21 -35 25 -74 23 -43 -3 -47 -1 -52 21 -3 14 -12 26 -20 28
-8 2 -16 8 -18 13 -2 5 -14 9 -27 9 -21 0 -24 -6 -30 -60 -4 -33 -10 -60 -14
-60 -5 0 -8 -15 -9 -32 0 -18 -6 -34 -11 -36 -6 -2 -11 -10 -11 -17 0 -22 -12
-24 -63 -13 -35 7 -48 14 -46 26 3 33 -1 40 -31 52 l-30 12 -1 137 c0 85 -4
129 -9 116 -5 -11 -9 -41 -9 -67 -1 -56 -16 -71 -26 -26 -9 39 -39 90 -48 81
-4 -3 -7 -15 -7 -25 0 -29 -27 -21 -38 12 -8 20 -19 31 -39 35 -15 4 -48 13
-72 21 -25 8 -53 14 -62 14 -10 0 -39 7 -65 16 -25 8 -54 16 -65 17 -10 1 -19
8 -19 16 0 8 -3 12 -6 9 -3 -4 -17 0 -31 7 -14 7 -31 11 -37 9 -19 -7 -96 24
-115 47 -15 18 -20 19 -44 8 -21 -10 -30 -10 -39 -1 -17 17 -48 15 -48 -3 0
-8 -4 -15 -10 -15 -5 0 -10 4 -10 10 0 15 -54 65 -67 62 -6 -1 -14 7 -18 18
-6 20 -25 28 -25 10 0 -5 -4 -10 -10 -10 -5 0 -10 10 -10 23 0 18 -10 26 -51
40 -27 10 -53 25 -56 33 -3 8 -16 14 -29 14 -14 0 -27 7 -30 15 -5 12 -10 13
-20 4 -11 -9 -14 -8 -14 2 -1 9 -4 7 -11 -4 -8 -13 -9 -273 -5 -877 7 -868 7
-879 43 -1030 9 -36 10 -37 218 -146 17 -8 50 -27 75 -41 25 -14 120 -63 212
-110 92 -46 170 -88 173 -93 4 -6 406 -10 1070 -10 1004 0 1064 1 1068 17 4
17 5 17 6 1 1 -14 10 -18 45 -18 42 0 44 2 61 43 10 23 17 57 17 75 -1 20 3
32 11 32 7 0 18 17 24 37 6 21 39 117 73 213 116 328 162 465 167 495 3 17 11
37 18 45 7 8 31 66 54 127 l41 113 2 397 3 398 5 -375 c4 -288 8 -369 16 -350
6 14 46 129 88 255 43 127 81 239 86 250 4 11 13 40 20 65 19 75 100 320 132
402 26 66 34 77 57 80 26 3 26 3 32 118 4 63 7 142 8 174 l1 59 60 -6 61 -7
-6 288 c-5 291 -9 342 -26 342 -20 0 -30 59 -40 224 -12 192 -1 317 32 348 16
16 18 45 18 395 0 208 -4 387 -9 398 -5 11 -9 14 -9 8 -1 -18 -31 -16 -31 1 0
8 10 16 23 18 21 3 22 8 27 123 4 66 7 104 9 85 l3 -35 9 40 c4 22 8 61 8 88
l1 47 -87 0 c-102 0 -972 -48 -990 -55 -9 -3 -13 -27 -13 -74 0 -61 3 -72 23
-86 18 -13 19 -16 4 -13 -17 3 -18 -20 -17 -487 0 -315 -3 -486 -9 -480 -6 6
-13 153 -16 345 -4 184 -11 367 -15 405 -4 39 -4 74 1 79 5 6 8 39 7 75 l-1
66 -7 -65 c-5 -49 -7 -30 -8 80 l0 145 -149 1 c-81 0 -166 5 -188 11 -22 6
-161 49 -310 95 l-270 85 -3 71 c-3 84 23 77 -202 56z m97 -461 c-2 -21 -4 -6
-4 32 0 39 2 55 4 38 2 -18 2 -50 0 -70z m2043 27 c11 -7 5 -10 -25 -10 -22 0
-105 -4 -185 -9 -80 -5 -253 -11 -385 -14 -265 -4 -209 2 240 26 339 18 337
18 355 7z m-807 -17 c-13 -2 -35 -2 -50 0 -16 2 -5 4 22 4 28 0 40 -2 28 -4z
m-1766 -94 c-12 -7 -27 -7 -45 0 -25 9 -24 9 18 10 36 0 41 -2 27 -10z m220
-416 c-2 -21 -4 -6 -4 32 0 39 2 55 4 38 2 -18 2 -50 0 -70z m623 66 c0 -24
-4 -30 -17 -27 -11 2 -19 14 -21 31 -3 22 1 27 17 27 17 0 21 -6 21 -31z m80
-124 c0 -85 -4 -155 -9 -155 -11 0 -21 60 -21 127 0 28 -4 55 -10 58 -5 3 -10
33 -10 66 0 56 1 59 25 59 l25 0 0 -155z m80 131 c13 -36 2 -63 -28 -69 -37
-7 -42 -2 -42 49 0 42 1 44 30 44 23 0 33 -6 40 -24z m-229 -26 c5 0 9 -9 9
-20 0 -16 -7 -20 -30 -20 -16 0 -30 4 -30 9 0 23 14 42 27 37 8 -3 19 -6 24
-6z m69 -40 c0 -13 -7 -20 -20 -20 -22 0 -23 1 -14 24 9 23 34 20 34 -4z m-84
-32 c4 -5 -96 -8 -222 -8 -126 0 -224 4 -217 8 15 9 429 9 439 0z m-539 -290
c-1 -46 -3 -9 -3 82 0 91 2 128 3 83 2 -46 2 -120 0 -165z m39 124 c8 -57 8
-79 0 -84 -13 -9 -25 44 -25 121 -1 74 12 56 25 -37z m794 -7 c7 -8 11 -35 8
-65 -1 -27 2 -52 7 -54 6 -3 5 -8 -3 -14 -9 -6 -12 -27 -10 -68 l4 -59 201
-10 c111 -5 205 -14 210 -19 4 -5 -50 -6 -127 -2 -204 9 -279 10 -287 3 -14
-14 -22 -6 -29 28 -3 19 -9 34 -13 33 -20 -2 -31 4 -31 17 0 9 6 12 15 9 10
-4 15 0 15 15 0 13 -6 21 -16 21 -13 0 -15 7 -11 30 5 23 2 32 -12 39 -10 6
-21 20 -24 31 -4 16 0 20 19 20 16 0 24 6 24 18 0 37 38 54 60 27z m113 -52
c-13 -2 -33 -2 -45 0 -13 2 -3 4 22 4 25 0 35 -2 23 -4z m-852 -84 c3 -19 9
-40 13 -47 4 -7 1 -12 -8 -12 -14 0 -36 54 -36 88 0 28 25 4 31 -29z m817 14
c-10 -2 -26 -2 -35 0 -10 3 -2 5 17 5 19 0 27 -2 18 -5z m100 -110 c-10 -2
-26 -2 -35 0 -10 3 -2 5 17 5 19 0 27 -2 18 -5z m-791 -10 c-7 -7 -149 -4
-156 3 -2 2 33 4 79 4 46 0 80 -3 77 -7z m161 -10 c-27 -2 -69 -2 -95 0 -27 2
-5 3 47 3 52 0 74 -1 48 -3z m409 -8 c-4 -8 -2 -17 2 -20 5 -3 7 -14 4 -26 -4
-15 -8 -17 -13 -8 -5 7 -6 18 -3 26 4 9 -5 13 -31 13 -20 0 -36 5 -36 11 0 7
12 9 36 4 24 -4 34 -3 29 4 -3 6 -1 11 5 11 7 0 10 -7 7 -15z m-269 -2 c-15
-2 -42 -2 -60 0 -18 2 -6 4 27 4 33 0 48 -2 33 -4z m282 -103 c0 -5 -7 -10
-15 -10 -8 0 -15 5 -15 10 0 6 7 10 15 10 8 0 15 -4 15 -10z m590 -179 c0 -8
-90 -3 -99 5 -2 2 19 4 47 4 29 0 52 -4 52 -9z m-100 -236 c47 -3 101 -10 120
-15 19 -6 109 -15 200 -21 264 -18 440 -36 440 -46 0 -2 -12 -20 -26 -39 -19
-25 -34 -34 -56 -34 -16 0 -31 6 -34 13 -3 8 -18 12 -37 10 -136 -11 -187 -10
-187 5 0 10 -5 12 -17 6 -31 -13 -93 -17 -106 -6 -34 28 -177 54 -177 32 0 -5
-4 -10 -10 -10 -5 0 -10 7 -10 17 0 14 -11 15 -105 10 -92 -6 -105 -5 -105 9
0 12 -5 14 -17 9 -37 -16 -81 -16 -118 -1 l-38 16 26 20 c14 11 34 20 45 20
12 0 24 4 27 10 3 5 27 8 53 6 26 -2 85 -7 132 -11z m-282 -132 c18 -4 20 -8
10 -14 -17 -12 -31 -11 -23 0 3 5 -3 12 -12 14 -10 3 -13 5 -8 6 6 0 21 -2 33
-6z m201 -19 c2 -2 -21 -4 -52 -4 -31 0 -59 5 -63 11 -4 7 11 9 52 4 33 -4 61
-9 63 -11z m99 9 c-10 -2 -26 -2 -35 0 -10 3 -2 5 17 5 19 0 27 -2 18 -5z
m-238 -23 c0 -5 -4 -10 -10 -10 -5 0 -10 5 -10 10 0 6 5 10 10 10 6 0 10 -4
10 -10z m-110 -14 c0 -2 -7 -7 -16 -10 -8 -3 -12 -2 -9 4 6 10 25 14 25 6z
m417 -22 c-3 -3 -12 -4 -19 -1 -8 3 -5 6 6 6 11 1 17 -2 13 -5z m218 -4 c-3
-5 -10 -10 -16 -10 -5 0 -9 5 -9 10 0 6 7 10 16 10 8 0 12 -4 9 -10z m-258 -6
c-3 -3 -12 -4 -19 -1 -8 3 -5 6 6 6 11 1 17 -2 13 -5z m390 0 c-3 -3 -12 -4
-19 -1 -8 3 -5 6 6 6 11 1 17 -2 13 -5z m-532 -14 c-3 -5 -16 -10 -28 -10 -18
0 -19 2 -7 10 20 13 43 13 35 0z m452 -6 c-3 -3 -12 -4 -19 -1 -8 3 -5 6 6 6
11 1 17 -2 13 -5z m-107 -29 c-7 -8 -17 -15 -23 -15 -5 0 -2 9 8 20 21 23 35
19 15 -5z m-120 -15 l25 -8 -25 -1 c-14 0 -32 4 -40 9 -13 9 -13 10 0 9 8 -1
26 -5 40 -9z m73 -17 c-7 -2 -21 -2 -30 0 -10 3 -4 5 12 5 17 0 24 -2 18 -5z
m142 -3 c14 -6 0 -9 -45 -9 -45 -1 -60 2 -50 9 18 12 68 12 95 0z m168 3 c-7
-2 -19 -2 -25 0 -7 3 -2 5 12 5 14 0 19 -2 13 -5z m-125 -30 c-10 -2 -26 -2
-35 0 -10 3 -2 5 17 5 19 0 27 -2 18 -5z m489 -75 c-3 -8 -6 -5 -6 6 -1 11 2
17 5 13 3 -3 4 -12 1 -19z m205 -60 c-11 -11 -39 -1 -46 17 -4 11 1 11 25 3
18 -6 27 -14 21 -20z m-572 -118 c0 -5 -5 -10 -11 -10 -5 0 -7 5 -4 10 3 6 8
10 11 10 2 0 4 -4 4 -10z m107 -60 c-1 -11 -5 -20 -9 -20 -4 0 0 -12 8 -27 7
-16 14 -32 14 -36 0 -13 27 -37 33 -30 3 3 -3 14 -14 26 -27 29 -24 45 4 20
12 -11 28 -18 35 -16 7 3 -1 -19 -18 -49 -17 -29 -38 -70 -47 -90 -9 -21 -20
-38 -25 -38 -4 0 -8 49 -8 109 0 60 -3 116 -6 124 -3 8 2 22 11 31 21 21 24
20 22 -4z m-130 -182 c-3 -8 -6 -5 -6 6 -1 11 2 17 5 13 3 -3 4 -12 1 -19z
m110 -390 c-1 -57 -3 -11 -3 102 0 113 2 159 3 103 2 -57 2 -149 0 -205z
m-264 226 c-18 -28 -28 -32 -19 -7 4 9 2 20 -5 23 -6 4 0 8 14 8 25 0 25 -1
10 -24z m-3106 -76 c-3 -8 -6 -5 -6 6 -1 11 2 17 5 13 3 -3 4 -12 1 -19z
m3011 -13 c-3 -3 -9 2 -12 12 -6 14 -5 15 5 6 7 -7 10 -15 7 -18z m-72 -103
c-4 -3 -11 0 -16 8 -15 24 -11 33 6 15 9 -9 13 -19 10 -23z m321 -34 c-3 -8
-6 -5 -6 6 -1 11 2 17 5 13 3 -3 4 -12 1 -19z m-369 -5 c-10 -2 -18 -9 -18
-15 0 -6 -3 -9 -6 -5 -10 10 6 27 24 26 15 -1 15 -2 0 -6z m44 -103 c-9 -16
-21 -30 -25 -30 -5 0 1 14 13 30 27 39 34 39 12 0z m448 -21 c0 -5 -4 -9 -10
-9 -5 0 -10 7 -10 16 0 8 5 12 10 9 6 -3 10 -10 10 -16z m-289 -172 c-10 -9
-11 -8 -5 6 3 10 9 15 12 12 3 -3 0 -11 -7 -18z m-24 -44 c-8 -16 -26 -54 -42
-86 -23 -49 -45 -79 -45 -64 0 9 92 177 96 177 3 0 -2 -12 -9 -27z m191 -215
l-2 -203 -6 155 c-3 85 -7 150 -8 144 -1 -6 -13 -36 -26 -65 l-24 -54 2 45 c1
25 15 71 29 103 15 32 27 62 27 67 0 6 2 10 5 10 3 0 4 -91 3 -202z m-2103 82
c-3 -5 -10 -10 -16 -10 -5 0 -9 5 -9 10 0 6 7 10 16 10 8 0 12 -4 9 -10z m22
-33 c-4 -13 -37 -18 -37 -6 0 5 -7 9 -15 9 -8 0 -15 4 -15 8 0 4 16 6 35 4 20
-2 34 -9 32 -15z m1993 -108 c0 8 2 12 5 9 3 -3 -20 -63 -51 -134 -31 -71 -74
-169 -95 -218 l-39 -90 -2 -315 -3 -316 -2 314 -3 313 44 112 c28 70 43 120
39 134 -3 13 -1 22 6 22 6 0 11 7 11 14 0 8 16 49 37 91 25 52 39 72 44 63 7
-10 9 -10 9 1z m-179 -212 c0 -71 -2 -131 -5 -134 -3 -4 -6 56 -6 132 0 76 2
136 5 134 2 -3 5 -62 6 -132z m-174 -119 c-3 -8 -6 -5 -6 6 -1 11 2 17 5 13 3
-3 4 -12 1 -19z m160 -960 c-3 -7 -5 -2 -5 12 0 14 2 19 5 13 2 -7 2 -19 0
-25z m-120 -40 c-3 -8 -6 -5 -6 6 -1 11 2 17 5 13 3 -3 4 -12 1 -19z"/>
<path d="M8498 3993 c7 -3 16 -2 19 1 4 3 -2 6 -13 5 -11 0 -14 -3 -6 -6z"/>
<path d="M9620 2549 c0 -5 5 -7 10 -4 6 3 10 8 10 11 0 2 -4 4 -10 4 -5 0 -10
-5 -10 -11z"/>
<path d="M5210 5260 c-9 -6 -10 -10 -3 -10 6 0 15 5 18 10 8 12 4 12 -15 0z"/>
<path d="M5018 5253 c6 -2 18 -2 25 0 6 3 1 5 -13 5 -14 0 -19 -2 -12 -5z"/>
<path d="M5278 5253 c7 -3 16 -2 19 1 4 3 -2 6 -13 5 -11 0 -14 -3 -6 -6z"/>
<path d="M9853 5253 c3 -5 -15 -6 -40 -4 -25 2 -118 -4 -207 -13 -88 -8 -208
-18 -266 -21 -58 -3 -154 -10 -215 -15 -60 -5 -254 -19 -430 -31 -176 -12
-324 -25 -328 -29 -15 -13 99 -50 133 -44 21 5 51 -3 105 -27 41 -18 75 -36
75 -41 0 -4 32 -17 71 -29 71 -22 172 -23 224 -3 17 7 16 9 -10 16 -16 4 -39
5 -51 2 -12 -3 -25 -1 -29 5 -3 7 -3 11 2 10 20 -3 34 2 28 11 -4 6 7 10 25
10 17 0 48 10 70 22 34 20 42 21 72 10 19 -6 42 -12 52 -12 9 0 15 -4 12 -9
-10 -16 21 -20 100 -15 50 3 73 1 69 -6 -4 -6 7 -10 27 -9 18 1 25 3 15 6 -15
4 -16 7 -5 20 12 15 5 16 -72 11 -47 -3 -75 -3 -63 -1 29 6 41 21 46 63 3 31
5 32 12 13 4 -13 11 -23 16 -23 5 0 9 -6 9 -14 0 -21 46 -28 106 -16 38 8 51
15 48 25 -7 18 21 60 31 46 3 -6 17 -11 29 -11 25 0 51 -22 39 -33 -14 -14
106 -6 143 9 26 11 57 15 96 12 42 -3 55 -1 48 7 -6 7 -7 15 -3 18 12 12 22 7
28 -13 4 -14 18 -22 45 -26 26 -4 40 -12 43 -26 6 -21 -14 -34 -38 -25 -8 4
-17 2 -20 -3 -4 -6 6 -10 20 -10 15 0 24 -4 20 -10 -4 -6 17 -10 57 -9 35 1
55 3 46 6 -10 2 -18 9 -18 14 0 6 6 7 12 3 7 -5 2 5 -10 21 -13 17 -33 45 -44
63 -13 21 -26 31 -35 27 -10 -3 -13 -1 -10 8 7 20 -41 77 -64 77 -11 0 -18 -3
-16 -7z m-1115 -178 c12 -3 22 -11 22 -17 0 -5 -7 -7 -16 -4 -9 4 -36 11 -60
17 -54 14 -61 23 -32 43 20 14 23 14 43 -8 12 -13 32 -27 43 -31z"/>
<path d="M4933 5243 c9 -2 23 -2 30 0 6 3 -1 5 -18 5 -16 0 -22 -2 -12 -5z"/>
<path d="M335 5221 c-3 -5 -1 -12 5 -16 5 -3 10 1 10 9 0 18 -6 21 -15 7z"/>
<path d="M10192 5210 c0 -14 2 -19 5 -12 2 6 2 18 0 25 -3 6 -5 1 -5 -13z"/>
<path d="M11345 5200 c-232 -24 -677 -57 -850 -63 l-70 -2 3 -540 c1 -297 5
-593 8 -658 l6 -118 42 3 41 3 0 560 0 560 180 12 c99 6 262 17 362 24 101 7
185 10 188 7 8 -8 24 -423 25 -658 1 -154 4 -199 13 -191 17 13 100 22 116 11
16 -9 35 -217 29 -313 -4 -47 -9 -61 -29 -74 -13 -10 -46 -39 -72 -66 l-48
-49 3 -254 c2 -140 0 -254 -4 -254 -5 0 -8 -22 -8 -50 0 -37 -4 -52 -17 -59
-18 -9 -382 -17 -435 -10 -14 2 -30 7 -34 12 -4 4 -20 7 -35 7 -21 0 -28 -5
-31 -22 -3 -21 -9 -23 -74 -26 -65 -3 -72 -1 -77 18 -3 11 -1 23 4 26 5 3 -3
15 -18 27 -19 15 -41 21 -77 22 l-51 0 -3 -62 c-2 -39 1 -63 8 -63 6 0 10 -25
10 -59 0 -64 7 -94 20 -86 5 3 11 1 15 -5 11 -17 46 -11 65 12 17 21 21 22 66
11 27 -7 66 -15 87 -19 22 -4 41 -14 44 -23 4 -9 11 -22 17 -30 5 -7 17 -34
26 -59 13 -42 18 -47 48 -49 19 -2 32 2 32 9 0 6 3 9 6 5 3 -3 16 5 29 19 24
26 41 31 47 12 3 -9 12 -9 38 0 24 9 36 9 46 1 8 -6 14 -7 14 -2 0 16 90 36
140 30 26 -3 51 -3 54 0 4 4 15 7 25 8 17 1 20 -8 26 -79 4 -45 6 -85 4 -91
-2 -5 1 -29 5 -52 l7 -41 62 -7 c34 -4 73 -12 87 -17 l25 -10 -25 -10 c-14 -5
-51 -8 -82 -5 -32 3 -58 3 -58 2 0 -2 5 -17 11 -32 33 -83 45 -103 62 -103 9
0 17 -7 17 -15 0 -8 7 -15 15 -15 8 0 15 -5 15 -11 0 -5 4 -8 9 -4 5 3 12 -4
16 -15 12 -37 35 -24 35 19 0 22 5 43 10 46 17 10 12 111 -6 126 -14 11 -14
13 0 21 13 7 14 13 6 29 -14 25 -3 66 13 50 6 -6 19 -11 29 -11 14 0 18 8 18
33 -1 37 -20 67 -43 67 -25 0 -32 20 -32 100 -1 41 -5 85 -9 98 -7 19 -5 22
14 22 l22 0 -6 543 c-3 298 -9 833 -12 1190 l-7 647 -41 -1 c-23 -1 -72 -5
-111 -9z m143 -1280 c3 -75 1 -90 -11 -90 -27 0 -34 55 -21 154 11 75 28 39
32 -64z m-779 -1071 c-16 -10 -23 -4 -14 10 3 6 11 8 17 5 6 -4 5 -9 -3 -15z"/>
<path d="M9883 5103 c9 -2 23 -2 30 0 6 3 -1 5 -18 5 -16 0 -22 -2 -12 -5z"/>
<path d="M9220 5031 c-39 -5 -42 -7 -20 -13 35 -11 82 -10 76 1 -4 5 0 12 6
14 16 7 -2 6 -62 -2z"/>
<path d="M9413 5033 c9 -2 25 -2 35 0 9 3 1 5 -18 5 -19 0 -27 -2 -17 -5z"/>
<path d="M5258 4888 c-10 -24 -14 -61 -13 -128 1 -52 -1 -99 -4 -105 -6 -11
-9 -150 -10 -597 -1 -281 -1 -288 -21 -288 -11 0 -20 7 -20 15 0 8 -7 15 -15
15 -9 0 -12 -6 -9 -15 4 -8 1 -15 -5 -15 -6 0 -11 7 -11 16 0 8 -5 12 -11 8
-6 -3 -9 -14 -6 -23 2 -10 -2 -18 -9 -19 -8 -1 -21 -3 -29 -4 -11 -1 -12 -5
-4 -15 6 -7 15 -10 20 -7 5 3 9 0 9 -6 0 -6 -13 -13 -30 -16 -18 -4 -27 -11
-23 -18 4 -6 -1 -5 -10 3 -15 12 -19 9 -37 -32 -11 -26 -25 -49 -31 -52 -5 -4
-7 -16 -3 -27 4 -13 1 -24 -7 -29 -11 -7 -10 -9 4 -9 9 0 17 4 17 9 0 5 15 8
33 7 99 -4 468 42 504 63 10 6 12 11 6 11 -7 0 -13 6 -13 14 0 15 -21 26 -51
26 -23 0 -25 23 -3 45 16 16 26 62 25 113 -1 15 5 22 19 22 28 0 25 20 -2 21
-13 1 -26 1 -30 0 -5 0 -8 6 -8 14 0 8 -4 15 -10 15 -5 0 -10 4 -10 8 0 5 6 9
13 9 6 0 22 3 34 7 19 6 23 3 29 -20 l7 -27 13 29 12 29 2 -25 c1 -15 4 -19 7
-10 2 8 7 22 10 30 3 8 5 25 4 37 -3 32 28 205 39 218 14 17 23 595 9 612 -18
21 -38 15 -45 -12 -5 -20 -12 -25 -39 -25 -25 0 -35 5 -40 20 -3 11 -3 24 0
30 3 5 -2 10 -13 10 -10 0 -27 9 -37 20 -17 19 -17 21 0 40 21 23 4 27 -19 4
-12 -12 -16 -12 -16 -2 -1 7 -12 0 -25 -17 -22 -27 -31 -24 -26 8 2 11 -17 9
-24 -3 -10 -16 -25 -1 -25 26 0 20 -5 24 -28 24 -22 0 -32 -7 -44 -32z m182
-69 c0 -22 -25 -48 -47 -49 -18 0 -16 17 5 45 21 30 42 32 42 4z m-63 -81 c-3
-8 -6 -5 -6 6 -1 11 2 17 5 13 3 -3 4 -12 1 -19z m73 -9 c0 -5 -4 -9 -10 -9
-5 0 -10 7 -10 16 0 8 5 12 10 9 6 -3 10 -10 10 -16z m6 -60 c-3 -17 -6 -42
-6 -55 0 -30 -10 -30 -56 1 -22 15 -30 25 -20 25 9 0 16 8 16 20 0 21 24 39
54 40 15 0 17 -5 12 -31z m134 -164 c0 -8 -9 -15 -20 -15 -11 0 -20 7 -20 15
0 8 9 15 20 15 11 0 20 -7 20 -15z m-67 -30 c4 -8 2 -17 -3 -20 -6 -4 -10 3
-10 14 0 25 6 27 13 6z m-23 -87 c0 -13 -23 -5 -28 10 -2 7 2 10 12 6 9 -3 16
-11 16 -16z m5 -28 c3 -5 1 -10 -4 -10 -6 0 -11 5 -11 10 0 6 2 10 4 10 3 0 8
-4 11 -10z m-127 -349 c-15 -6 -20 7 -12 31 l8 23 6 -25 c3 -14 2 -27 -2 -29z
m152 33 c0 -8 -5 -12 -10 -9 -6 4 -8 11 -5 16 9 14 15 11 15 -7z m-205 -54 c3
-5 1 -10 -4 -10 -6 0 -11 5 -11 10 0 6 2 10 4 10 3 0 8 -4 11 -10z m202 -26
c1 -18 -2 -23 -9 -16 -6 6 -8 18 -5 26 9 22 12 20 14 -10z m-222 -13 c-3 -6
-11 -11 -17 -11 -6 0 -6 6 2 15 14 17 26 13 15 -4z m92 -3 c-3 -8 -6 -5 -6 6
-1 11 2 17 5 13 3 -3 4 -12 1 -19z m-77 -63 c0 -8 -4 -15 -10 -15 -5 0 -10 7
-10 15 0 8 5 15 10 15 6 0 10 -7 10 -15z m81 -31 c-12 -9 -19 -20 -15 -25 8
-13 45 -8 62 9 15 13 36 7 27 -9 -4 -5 1 -9 10 -9 15 0 15 -2 1 -15 -17 -18
-76 -20 -76 -3 0 7 -5 6 -12 -4 -14 -16 -118 -33 -118 -19 0 4 10 16 21 27 16
14 23 15 26 7 3 -7 13 -13 24 -13 19 0 23 9 20 43 -1 9 3 17 9 17 6 0 8 5 4
12 -5 8 -2 9 9 5 10 -4 17 -1 18 6 0 8 2 8 6 -1 3 -8 -4 -20 -16 -28z"/>
<path d="M6390 4914 c-14 -2 -89 -8 -166 -13 -78 -4 -146 -11 -152 -15 -6 -4
-4 -26 8 -63 15 -49 21 -58 41 -58 59 0 337 16 362 21 27 6 28 7 25 67 l-3 62
-45 1 c-25 1 -56 0 -70 -2z"/>
<path d="M1710 4896 c0 -2 7 -7 16 -10 8 -3 12 -2 9 4 -6 10 -25 14 -25 6z"/>
<path d="M4176 4763 c18 -95 17 -131 -3 -75 -8 23 -19 42 -24 42 -14 0 -9
-149 7 -178 8 -15 17 -43 20 -62 4 -19 11 -41 17 -48 5 -7 7 -15 4 -19 -4 -3
-9 2 -13 11 -9 23 -31 20 -38 -6 -9 -36 -7 -971 3 -987 6 -10 19 -12 46 -7 53
10 42 -15 -16 -34 -24 -8 -50 -19 -56 -23 -7 -5 -13 -4 -13 0 0 5 -16 9 -35
10 -19 1 -35 -3 -35 -9 0 -5 -6 -6 -12 -1 -7 4 -29 8 -48 8 -23 0 -34 4 -33
13 2 6 -4 12 -12 12 -12 0 -14 32 -10 221 l5 222 -84 -7 c-87 -6 -119 -13
-112 -25 2 -3 -2 -21 -10 -39 -17 -42 -37 -32 -32 15 l4 36 -170 -7 c-187 -8
-391 -23 -419 -32 -10 -3 -25 -23 -33 -45 -9 -21 -21 -39 -26 -39 -10 0 -6 27
8 64 5 14 -3 16 -56 16 -78 0 -100 -11 -100 -52 0 -43 -20 -106 -36 -112 -21
-8 -26 11 -14 52 7 20 15 49 20 64 4 15 5 29 2 32 -9 10 -129 7 -337 -9 -296
-22 -300 -23 -315 -73 -26 -83 -43 -121 -56 -126 -20 -8 -45 4 -37 18 4 6 15
40 24 74 14 56 14 65 1 69 -15 6 -329 -3 -417 -12 -27 -3 -138 -12 -245 -20
-107 -7 -203 -17 -212 -20 -15 -6 -16 -26 -15 -188 l2 -182 -50 -12 c-64 -16
-93 -38 -128 -99 -28 -46 -35 -83 -40 -193 -2 -38 -6 -47 -32 -61 -26 -14 -30
-23 -33 -64 -5 -70 22 -139 69 -179 21 -19 39 -36 39 -39 0 -3 -16 -9 -35 -12
-19 -4 -35 -9 -35 -12 0 -3 32 -36 71 -74 l72 -69 -29 -6 c-56 -13 -64 -17
-58 -26 3 -6 13 -8 21 -5 8 3 11 1 8 -4 -4 -6 11 -7 39 -4 50 7 116 -2 116
-16 0 -5 -20 -12 -45 -16 -49 -7 -64 -18 -39 -28 8 -3 12 -2 9 4 -3 6 3 10 14
10 11 0 23 -5 26 -10 9 -14 129 -4 290 26 152 28 410 80 443 90 26 8 28 1 6
-20 -26 -27 -7 -35 69 -31 171 11 228 17 257 25 18 5 35 9 39 8 3 0 16 0 29 1
27 1 30 39 6 77 -9 13 -15 27 -12 29 3 3 26 9 52 14 42 8 46 7 41 -8 -4 -9
-12 -29 -18 -46 -5 -16 -18 -42 -29 -57 -23 -34 -23 -45 4 -59 35 -19 307 1
365 27 17 8 41 14 53 14 11 0 19 4 15 9 -3 6 -18 6 -36 1 -23 -7 -30 -6 -26 4
3 7 -4 23 -14 37 -25 33 -26 58 -1 36 27 -24 284 -136 330 -143 54 -8 204 25
792 174 371 94 634 153 638 141 6 -15 22 -10 22 6 0 8 7 15 15 15 8 0 15 -4
15 -10 0 -5 7 -7 16 -3 11 4 12 8 4 13 -7 5 -2 9 14 12 14 3 26 1 26 -3 0 -5
-5 -9 -11 -9 -5 0 -7 -5 -3 -11 4 -7 9 -7 13 -2 3 6 33 17 66 25 33 9 50 16
38 17 -13 1 -23 5 -23 10 0 15 52 22 85 11 26 -8 24 -9 -15 -4 -33 4 -41 2
-30 -5 29 -20 97 -24 130 -8 16 9 28 11 25 6 -4 -5 3 -9 13 -9 11 0 23 7 26
16 8 22 8 22 -11 27 -17 4 -17 5 0 6 9 0 17 6 17 12 0 15 22 35 50 44 l25 8
-23 8 c-22 8 -29 37 -13 55 5 5 6 46 4 91 -5 71 -8 83 -25 89 -18 5 -20 12
-14 57 4 28 16 68 27 91 13 28 16 43 9 50 -13 13 -115 14 -182 3 l-46 -8 -12
38 c-17 52 -26 61 -69 69 -20 4 -39 12 -44 18 -5 8 -12 5 -21 -6 -13 -17 -36
-25 -36 -12 0 4 8 13 17 20 24 17 8 32 -17 16 -11 -7 -27 -12 -35 -12 -8 0
-15 -4 -15 -8 0 -21 -121 -55 -159 -45 -14 4 -20 11 -17 20 7 17 14 256 21
676 l5 307 -59 0 -58 0 28 80 c16 45 45 115 64 157 19 42 35 78 35 81 0 3 -13
-14 -30 -36 -16 -23 -30 -46 -30 -52 0 -5 -4 -10 -9 -10 -6 0 -4 15 4 34 15
34 10 106 -6 106 -5 0 -6 12 -3 28 12 50 -22 3 -44 -63 l-21 -60 -1 67 c0 37
-4 70 -10 73 -5 3 -10 0 -10 -7 0 -9 -3 -9 -10 2 -7 11 -10 3 -10 -30 l0 -45
-20 43 c-10 23 -21 42 -23 42 -2 0 2 -30 9 -67z m-389 -1285 c-1 -46 -3 -11
-3 77 0 88 2 125 3 83 2 -42 2 -114 0 -160z m-764 155 c-7 -2 -19 -2 -25 0 -7
3 -2 5 12 5 14 0 19 -2 13 -5z m363 -43 c2 0 11 -16 20 -35 16 -34 17 -35 31
-16 15 22 33 19 70 -9 17 -13 19 -20 10 -29 -9 -9 -8 -16 1 -32 17 -27 12 -31
-38 -33 -22 0 -40 -4 -40 -9 0 -4 -10 -3 -21 4 -16 8 -28 8 -48 -2 -14 -7 -30
-11 -35 -10 -5 1 -25 -6 -45 -15 -39 -19 -85 -28 -236 -44 -55 -5 -156 -17
-225 -25 -274 -32 -388 -45 -445 -50 -33 -3 -71 -7 -85 -9 -14 -3 -63 -8 -109
-11 -47 -4 -93 -11 -102 -16 -10 -5 -34 -9 -53 -9 -29 0 -36 -4 -36 -19 0 -10
7 -24 15 -31 25 -21 17 -30 -25 -30 -34 0 -40 -3 -40 -22 0 -22 0 -22 -19 -2
-38 39 -63 55 -77 50 -8 -3 -13 -2 -10 3 3 5 -10 24 -29 44 -19 20 -35 40 -35
46 0 20 -17 20 -53 1 -20 -11 -46 -20 -58 -20 -12 0 -23 -8 -26 -20 -5 -18 -6
-18 -28 -2 -14 10 -20 24 -17 37 4 17 0 16 -21 -7 -23 -27 -45 -38 -32 -18 4
6 -6 10 -24 10 -16 0 -31 -4 -33 -10 -3 -10 -98 47 -98 60 0 11 128 17 146 7
12 -7 13 -12 3 -23 -9 -11 -8 -14 9 -14 11 0 22 7 26 15 4 11 13 14 31 9 22
-5 27 -2 36 25 7 20 18 31 30 31 10 0 19 7 19 15 0 9 6 12 15 9 10 -4 15 0 15
15 0 12 5 21 10 21 22 0 60 -33 60 -52 0 -10 7 -33 16 -50 l17 -32 17 22 c19
23 54 29 65 12 9 -15 35 7 35 29 0 10 9 27 20 39 11 12 20 35 20 52 0 34 15
40 25 10 9 -29 28 -25 81 15 51 39 52 40 78 20 13 -10 17 -23 14 -49 -4 -37 3
-43 36 -30 9 3 16 12 16 19 0 22 22 29 32 11 5 -9 14 -14 19 -10 6 3 16 -1 22
-9 7 -8 22 -18 35 -22 18 -5 22 -2 22 14 0 12 9 22 23 26 12 4 31 18 43 31 12
13 24 21 27 17 4 -3 13 0 21 6 9 7 17 8 20 2 7 -10 44 -3 64 12 15 12 35 -10
27 -30 -9 -25 13 -21 46 7 43 37 55 37 68 0 12 -37 31 -39 31 -5 0 17 7 28 23
34 19 7 22 5 25 -15 4 -25 16 -31 28 -13 4 8 9 8 17 0 19 -19 84 -13 100 9 14
21 14 21 20 -2 8 -28 17 -19 26 23 8 38 30 50 38 20 4 -16 13 -20 42 -19 20 0
49 8 64 17 24 14 29 14 37 1 8 -13 11 -12 23 4 14 19 16 19 41 3 26 -17 26
-17 43 18 9 19 25 37 35 41 10 3 18 10 18 15 0 5 16 2 36 -6 20 -8 38 -15 40
-15z m474 -225 c0 -8 -4 -15 -10 -15 -5 0 -7 7 -4 15 4 8 8 15 10 15 2 0 4 -7
4 -15z m365 -5 c3 -5 -1 -10 -10 -10 -9 0 -13 5 -10 10 3 6 8 10 10 10 2 0 7
-4 10 -10z m-985 -20 c0 -5 -6 -10 -12 -11 -7 0 -22 -2 -33 -5 -11 -2 -99 -15
-195 -29 -96 -14 -179 -27 -184 -28 -5 -2 -11 -14 -13 -28 -8 -60 -52 -95 -54
-44 -1 14 -3 30 -4 35 -1 6 -3 15 -4 21 -1 7 -21 8 -58 4 -139 -14 -319 -38
-463 -61 -182 -28 -180 -28 -180 -9 0 8 3 15 8 15 12 0 318 38 447 55 66 9
154 20 195 25 113 13 292 40 315 47 11 4 65 10 120 13 55 4 103 8 108 8 4 1 7
-2 7 -8z m611 -40 c-28 -24 -37 -25 -44 -6 -4 11 1 13 19 10 13 -2 24 0 24 6
0 5 6 10 13 10 6 -1 1 -10 -12 -20z m-413 -4 c-33 -25 -20 -32 40 -22 33 5 66
6 75 3 25 -9 21 -30 -4 -24 -11 3 -22 0 -25 -6 -5 -15 -54 -19 -54 -5 0 6 -11
8 -25 6 -14 -3 -25 -2 -25 2 0 13 -32 21 -44 12 -6 -5 -27 -12 -46 -15 -19 -3
-44 -9 -55 -13 -15 -6 -13 0 10 24 25 25 42 33 95 40 36 5 67 10 70 10 3 1 -3
-5 -12 -12z m326 8 c9 -3 16 -12 16 -19 0 -16 -27 -27 -35 -15 -3 5 -19 8 -36
6 -36 -4 -34 15 2 25 34 10 35 10 53 3z m-120 -29 c18 -14 17 -15 -22 -15 -54
0 -56 19 -2 29 3 0 14 -6 24 -14z m-494 -5 c0 -5 -4 -10 -9 -10 -5 0 -17 -8
-27 -17 -13 -13 -19 -14 -22 -5 -5 16 -22 15 -42 -3 -15 -14 -23 -14 -59 -3
-22 7 -41 16 -41 20 0 7 53 16 130 21 25 2 51 4 58 5 6 1 12 -2 12 -8z m50
-10 c0 -5 -7 -10 -15 -10 -8 0 -15 5 -15 10 0 6 7 10 15 10 8 0 15 -4 15 -10z
m50 -10 c0 -5 -7 -10 -16 -10 -8 0 -12 5 -9 10 3 6 10 10 16 10 5 0 9 -4 9
-10z m-1866 -19 c3 -5 -6 -11 -19 -14 -27 -5 -44 8 -23 16 21 8 36 8 42 -2z
m1624 -56 c26 -40 27 -40 -57 -16 -71 19 -88 37 -44 44 68 10 77 8 101 -28z
m-663 -62 c-16 -3 -47 -8 -67 -13 -21 -4 -38 -4 -38 0 0 10 39 17 95 17 31 0
33 -1 10 -4z m439 -58 c39 -19 80 -37 90 -40 42 -12 -4 -27 -80 -25 -169 4
-286 0 -324 -10 -33 -9 -45 -8 -72 6 -23 12 -28 19 -18 22 8 3 18 10 22 15 3
6 32 10 65 9 32 0 52 2 46 4 -29 12 -8 21 75 33 48 7 92 15 97 16 21 7 31 4
99 -30z m-664 21 c0 -2 -9 -6 -20 -9 -11 -3 -20 -1 -20 4 0 5 9 9 20 9 11 0
20 -2 20 -4z m-90 -15 c0 -10 -26 -9 -36 2 -4 4 2 7 14 7 12 0 22 -4 22 -9z
m-50 -11 c0 -5 -8 -10 -17 -10 -15 0 -16 2 -3 10 19 12 20 12 20 0z m-84 -28
c-10 -2 -22 0 -28 6 -6 6 0 7 19 4 21 -5 23 -7 9 -10z m1154 8 c0 -5 -2 -10
-4 -10 -3 0 -8 5 -11 10 -3 6 -1 10 4 10 6 0 11 -4 11 -10z m-1196 -9 c3 -5
-13 -11 -37 -13 -53 -6 -59 -2 -16 11 45 12 47 12 53 2z m-217 -57 c-3 -3 -12
-4 -19 -1 -8 3 -5 6 6 6 11 1 17 -2 13 -5z m-47 -8 c0 -3 -4 -8 -10 -11 -5 -3
-10 -1 -10 4 0 6 5 11 10 11 6 0 10 -2 10 -4z m610 -6 c-19 -13 -30 -13 -30 0
0 6 10 10 23 10 18 0 19 -2 7 -10z m-710 -160 c0 -5 -17 -12 -37 -15 -21 -4
-51 -11 -67 -16 -16 -5 -34 -9 -40 -8 -19 1 100 43 137 48 4 1 7 -3 7 -9z
m964 -6 c10 -27 7 -132 -5 -140 -11 -6 -79 25 -79 37 0 4 6 12 14 18 7 6 21
31 31 56 18 47 29 56 39 29z m706 1 c0 -8 -4 -15 -10 -15 -5 0 -7 7 -4 15 4 8
8 15 10 15 2 0 4 -7 4 -15z m1697 9 c-3 -3 -12 -4 -19 -1 -8 3 -5 6 6 6 11 1
17 -2 13 -5z m-2113 -133 c35 -28 36 -30 14 -34 -17 -3 -14 -5 12 -7 33 -2 33
-3 10 -10 -35 -11 -62 -12 -56 -1 4 5 2 11 -4 13 -10 3 -27 68 -18 68 3 0 22
-13 42 -29z m-187 -57 c-3 -3 -12 -4 -19 -1 -8 3 -5 6 6 6 11 1 17 -2 13 -5z"/>
<path d="M5910 4810 c0 -5 5 -10 10 -10 6 0 10 5 10 10 0 6 -4 10 -10 10 -5 0
-10 -4 -10 -10z"/>
<path d="M5193 4700 c0 -25 2 -35 4 -22 2 12 2 32 0 45 -2 12 -4 2 -4 -23z"/>
<path d="M5153 4685 c0 -22 2 -30 4 -17 2 12 2 30 0 40 -3 9 -5 -1 -4 -23z"/>
<path d="M5172 4630 c0 -14 2 -19 5 -12 2 6 2 18 0 25 -3 6 -5 1 -5 -13z"/>
<path d="M5202 4610 c-2 -25 -4 -83 -6 -130 l-4 -85 9 70 c5 39 8 97 6 130 -3
52 -3 54 -5 15z"/>
<path d="M6720 4600 c-107 -4 -207 -8 -222 -9 -26 -1 -28 -4 -28 -47 0 -27 4
-43 10 -39 6 4 10 -5 10 -20 l0 -25 228 2 227 3 0 70 c0 55 -3 70 -15 71 -8 0
-103 -3 -210 -6z"/>
<path d="M5171 4584 c0 -11 3 -14 6 -6 3 7 2 16 -1 19 -3 4 -6 -2 -5 -13z"/>
<path d="M5153 4440 c0 -25 2 -35 4 -22 2 12 2 32 0 45 -2 12 -4 2 -4 -23z"/>
<path d="M5193 4275 c0 -27 2 -38 4 -22 2 15 2 37 0 50 -2 12 -4 0 -4 -28z"/>
<path d="M4547 4058 c-9 -303 -9 -500 1 -514 7 -12 191 -36 206 -27 8 6 0 397
-10 491 -4 32 -11 52 -19 52 -7 0 -15 7 -19 15 -3 8 -12 15 -20 15 -8 0 -18 9
-21 20 -4 11 -11 18 -16 15 -5 -4 -9 6 -9 20 0 15 -4 24 -10 20 -5 -3 -10 -1
-10 5 0 6 -11 22 -25 35 -13 14 -20 25 -15 25 16 0 11 26 -8 44 -18 16 -19 9
-25 -216z m159 -435 c-2 -16 -9 -28 -17 -28 -8 0 -14 11 -14 28 -1 19 4 27 16
27 13 0 17 -7 15 -27z"/>
<path d="M6076 4203 c4 -32 12 -61 18 -65 9 -7 127 -11 364 -13 l47 0 0 65 0
65 -218 3 -218 2 7 -57z"/>
<path d="M4845 4160 c3 -5 10 -10 16 -10 5 0 9 5 9 10 0 6 -7 10 -16 10 -8 0
-12 -4 -9 -10z"/>
<path d="M6473 3878 c6 -50 11 -76 18 -82 4 -4 198 -21 367 -31 l103 -7 -3 69
-3 68 -155 12 c-85 6 -195 12 -244 12 l-88 1 5 -42z"/>
<path d="M11803 3913 c-22 -8 -14 -23 12 -23 14 0 25 4 25 9 0 11 -21 19 -37
14z"/>
<path d="M5602 3894 c-7 -8 -8 -14 -3 -14 10 0 25 19 20 25 -2 1 -10 -3 -17
-11z"/>
<path d="M5182 3850 c0 -14 2 -19 5 -12 2 6 2 18 0 25 -3 6 -5 1 -5 -13z"/>
<path d="M5560 3860 c0 -5 5 -10 11 -10 5 0 7 5 4 10 -3 6 -8 10 -11 10 -2 0
-4 -4 -4 -10z"/>
<path d="M12110 3810 c0 -5 4 -10 9 -10 6 0 13 5 16 10 3 6 -1 10 -9 10 -9 0
-16 -4 -16 -10z"/>
<path d="M12440 3750 c0 -5 -10 -10 -22 -10 -12 0 -19 -3 -15 -6 9 -9 -54 -74
-72 -74 -19 0 -103 -89 -95 -102 7 -11 45 -1 59 16 20 23 77 66 87 66 6 0 -2
-10 -18 -22 -53 -42 -82 -88 -54 -88 6 0 10 -6 10 -13 0 -8 9 -22 20 -32 30
-27 25 -35 -21 -35 -22 0 -38 -4 -35 -9 8 -12 106 -29 224 -38 93 -8 102 -7
102 9 0 9 5 20 10 23 6 4 10 53 10 115 0 102 -1 109 -21 115 -26 9 -63 44 -54
53 3 4 10 0 15 -8 5 -8 13 -11 17 -6 4 5 3 11 -4 13 -7 2 -9 11 -6 19 3 8 0
14 -6 14 -6 0 -11 -5 -11 -10 0 -6 -12 -15 -26 -20 -20 -8 -24 -15 -19 -31 8
-25 -2 -69 -15 -69 -6 0 -10 9 -10 20 0 10 -6 23 -13 27 -18 10 -28 51 -14 56
13 4 2 37 -13 37 -5 0 -10 -4 -10 -10z m42 -132 c5 -28 4 -29 -9 -13 -15 21
-17 45 -4 45 5 0 11 -14 13 -32z"/>
<path d="M5500 3696 c0 -9 5 -16 10 -16 6 0 10 4 10 9 0 6 -4 13 -10 16 -5 3
-10 -1 -10 -9z"/>
<path d="M6010 3147 c0 -555 -11 -500 100 -510 47 -4 69 -11 80 -25 16 -20 31
-25 145 -46 39 -8 144 -30 235 -50 230 -51 1110 -226 1129 -225 21 1 -100 31
-159 38 -11 2 -9 5 5 11 l20 9 -20 1 c-88 6 -150 20 -87 20 19 0 35 7 42 18
10 15 11 15 6 0 -3 -9 2 -19 10 -22 24 -9 44 -7 44 4 0 6 -6 10 -13 10 -10 0
-13 12 -10 45 3 29 0 45 -7 45 -6 0 -8 -5 -5 -10 4 -6 1 -9 -7 -8 -7 2 -14 -7
-16 -19 -2 -17 -10 -21 -35 -21 -47 0 -57 -1 -56 -9 5 -33 -1 -36 -63 -29 -42
5 -69 14 -81 27 -10 10 -25 19 -33 19 -8 0 -12 5 -9 10 3 6 -1 10 -9 10 -8 0
-20 8 -25 18 -6 9 -11 11 -11 5 0 -7 -9 -13 -21 -13 -18 0 -19 -2 -5 -15 8 -8
25 -15 38 -15 13 0 30 -5 38 -10 22 -15 -3 -13 -67 4 -29 8 -62 12 -73 9 -25
-7 -27 12 -3 26 29 16 8 23 -33 12 -24 -7 -42 -7 -49 -1 -7 6 -14 7 -18 4 -11
-11 -49 17 -39 29 4 7 7 24 6 40 -2 15 0 27 2 27 9 0 34 -28 34 -38 0 -5 9
-12 21 -15 13 -4 18 -10 13 -18 -4 -8 -3 -10 5 -5 6 4 8 12 5 18 -4 5 4 4 17
-2 13 -7 21 -9 17 -5 -4 4 -3 16 2 26 8 14 6 20 -7 28 -14 8 -10 9 17 6 32 -4
34 -3 16 11 -20 14 -10 19 18 8 9 -3 13 -10 10 -15 -8 -13 17 -10 45 5 23 13
21 14 -35 21 -32 4 -66 10 -74 15 -29 14 -70 20 -70 10 0 -5 10 -10 23 -11 12
0 31 -4 42 -9 14 -7 8 -8 -20 -4 -22 3 -47 14 -55 23 -10 12 -45 22 -100 31
-47 7 -112 18 -144 26 -42 9 -65 10 -79 2 -13 -7 -17 -7 -13 0 4 7 -9 14 -31
17 -21 4 -51 11 -68 15 -16 5 -86 19 -155 30 -137 24 -204 43 -226 64 -11 12
-11 15 1 20 8 3 15 12 15 21 0 12 6 11 35 -5 29 -16 40 -18 62 -8 16 6 39 13
53 15 14 2 53 13 86 24 58 20 62 23 68 57 3 21 6 62 7 92 l2 55 7 -55 c4 -30
5 -67 3 -82 -3 -22 0 -28 15 -28 28 0 38 17 50 87 16 93 49 152 106 191 88 59
182 41 284 -53 l68 -63 60 24 c32 13 60 24 60 24 1 0 2 30 2 67 0 42 -4 71
-11 75 -9 6 -9 8 0 8 18 0 -29 47 -52 51 -15 3 -21 14 -23 42 -6 76 70 146
159 147 70 0 180 -44 239 -95 14 -13 41 -25 61 -29 20 -4 56 -21 79 -39 24
-17 49 -36 56 -42 10 -7 42 0 106 22 234 82 324 115 330 121 5 5 -117 18 -270
30 -384 32 -821 70 -922 82 -47 5 -116 12 -155 15 -38 3 -90 8 -115 10 l-45 5
30 -16 c53 -30 94 -65 116 -101 20 -33 20 -35 4 -53 -18 -20 -41 -28 -30 -11
3 5 1 12 -5 16 -5 3 -10 -1 -10 -9 0 -10 -6 -13 -15 -9 -10 3 -15 1 -13 -7 2
-8 -14 -14 -47 -17 -77 -6 -78 -7 -73 -63 3 -28 12 -58 20 -68 24 -27 31 -61
16 -79 -19 -23 -81 -48 -86 -34 -2 7 -10 8 -20 2 -33 -17 -108 4 -157 44 -53
43 -63 60 -47 85 9 14 8 20 -5 24 -12 5 -14 9 -5 18 15 15 15 91 0 106 -9 9
-15 9 -26 -1 -13 -10 -14 -8 -8 18 8 32 46 93 74 118 9 9 43 24 76 34 l58 19
-148 12 c-82 7 -177 15 -211 19 l-63 6 0 -486z m940 -547 c0 -4 -7 -10 -15
-14 -10 -4 -15 1 -15 14 0 13 5 18 15 14 8 -4 15 -10 15 -14z m87 -36 c-3 -3
-12 -4 -19 -1 -8 3 -5 6 6 6 11 1 17 -2 13 -5z m-217 -64 c0 -5 -2 -10 -4 -10
-3 0 -8 5 -11 10 -3 6 -1 10 4 10 6 0 11 -4 11 -10z m370 -60 c0 -5 -5 -10
-11 -10 -5 0 -7 5 -4 10 3 6 8 10 11 10 2 0 4 -4 4 -10z"/>
<path d="M8175 3588 c-33 -12 -53 -23 -45 -25 107 -19 357 -36 364 -25 10 17
-15 36 -48 36 -23 0 -36 5 -36 13 0 8 -12 13 -29 13 -15 0 -55 2 -87 5 -45 3
-73 -1 -119 -17z m102 -4 c-3 -3 -12 -4 -19 -1 -8 3 -5 6 6 6 11 1 17 -2 13
-5z"/>
<path d="M8465 3600 c-19 -8 -19 -9 3 -9 12 -1 22 4 22 9 0 6 -1 10 -2 9 -2 0
-12 -4 -23 -9z"/>
<path d="M7317 3199 c-4 -15 -1 -19 11 -17 21 4 29 38 9 38 -8 0 -17 -9 -20
-21z"/>
<path d="M6850 3045 c0 -9 5 -15 11 -13 6 2 11 8 11 13 0 5 -5 11 -11 13 -6 2
-11 -4 -11 -13z"/>
<path d="M6763 3026 c-6 -8 -9 -17 -6 -20 4 -3 -1 -6 -10 -6 -9 0 -17 -4 -17
-10 0 -5 4 -10 8 -10 11 0 118 39 112 41 -3 1 -14 3 -25 4 -11 2 -27 5 -35 9
-8 3 -20 -1 -27 -8z m44 -12 c-3 -3 -12 -4 -19 -1 -8 3 -5 6 6 6 11 1 17 -2
13 -5z"/>
<path d="M5245 2920 c-3 -5 -1 -10 4 -10 6 0 11 5 11 10 0 6 -2 10 -4 10 -3 0
-8 -4 -11 -10z"/>
<path d="M5318 2918 c5 -5 16 -8 23 -6 8 3 3 7 -10 11 -17 4 -21 3 -13 -5z"/>
<path d="M5245 2890 c3 -5 8 -10 11 -10 2 0 4 5 4 10 0 6 -5 10 -11 10 -5 0
-7 -4 -4 -10z"/>
<path d="M9400 2662 c-19 -26 -38 -51 -43 -57 -75 -98 -83 -115 -54 -115 6 0
7 3 4 6 -7 8 30 58 44 60 5 1 16 2 25 3 11 1 13 7 9 21 -4 11 -2 20 4 20 6 0
11 -5 11 -12 0 -6 3 -8 7 -4 6 6 11 25 16 71 1 11 6 26 11 33 4 7 6 15 5 17
-2 2 -20 -18 -39 -43z"/>
<path d="M4732 2653 c2 -20 11 -29 35 -37 41 -14 41 -26 1 -47 l-31 -16 36
-12 c20 -7 49 -11 64 -10 15 1 37 1 48 0 17 -1 18 -3 5 -11 -24 -17 65 0 137
25 36 13 61 25 56 28 -4 2 -62 21 -128 41 -66 21 -137 44 -158 52 -56 21 -69
19 -65 -13z"/>
<path d="M7194 2558 c-9 -13 11 -15 36 -1 l25 13 -28 -2 c-16 -2 -31 -6 -33
-10z"/>
<path d="M7260 2556 c0 -2 7 -6 15 -10 8 -3 15 -1 15 4 0 6 -7 10 -15 10 -8 0
-15 -2 -15 -4z"/>
<path d="M7445 2520 c3 -5 8 -10 11 -10 2 0 4 5 4 10 0 6 -5 10 -11 10 -5 0
-7 -4 -4 -10z"/>
<path d="M7410 2500 c0 -5 5 -10 11 -10 5 0 7 5 4 10 -3 6 -8 10 -11 10 -2 0
-4 -4 -4 -10z"/>
<path d="M7660 2480 c0 -5 14 -10 32 -10 36 0 35 4 -4 14 -17 4 -28 2 -28 -4z"/>
<path d="M7262 2472 c-13 -2 -22 -8 -20 -14 5 -15 45 -20 54 -7 9 15 -7 26
-34 21z"/>
<path d="M7485 2470 c-3 -6 1 -7 9 -4 18 7 21 14 7 14 -6 0 -13 -4 -16 -10z"/>
<path d="M7758 2463 c7 -3 16 -2 19 1 4 3 -2 6 -13 5 -11 0 -14 -3 -6 -6z"/>
<path d="M1745 2450 c-30 -8 -30 -8 8 -9 23 -1 36 3 32 9 -3 6 -7 9 -8 9 -1
-1 -15 -5 -32 -9z"/>
<path d="M7441 2441 c-10 -6 -10 -10 -1 -16 13 -8 24 -1 19 14 -3 6 -10 7 -18
2z"/>
<path d="M7848 2443 c6 -2 18 -2 25 0 6 3 1 5 -13 5 -14 0 -19 -2 -12 -5z"/>
<path d="M1188 2433 c7 -3 16 -2 19 1 4 3 -2 6 -13 5 -11 0 -14 -3 -6 -6z"/>
<path d="M1660 2430 l-25 -8 25 -1 c14 0 32 4 40 9 13 9 13 10 0 9 -8 -1 -26
-5 -40 -9z"/>
<path d="M7640 2431 c0 -6 5 -13 10 -16 6 -3 10 1 10 9 0 9 -4 16 -10 16 -5 0
-10 -4 -10 -9z"/>
<path d="M7973 2423 c9 -2 23 -2 30 0 6 3 -1 5 -18 5 -16 0 -22 -2 -12 -5z"/>
<path d="M7306 2411 c-4 -7 -5 -15 -2 -18 9 -9 19 4 14 18 -4 11 -6 11 -12 0z"/>
<path d="M8038 2413 c6 -2 18 -2 25 0 6 3 1 5 -13 5 -14 0 -19 -2 -12 -5z"/>
<path d="M1528 2403 c7 -3 16 -2 19 1 4 3 -2 6 -13 5 -11 0 -14 -3 -6 -6z"/>
<path d="M7870 2389 c0 -5 5 -7 10 -4 6 3 10 8 10 11 0 2 -4 4 -10 4 -5 0 -10
-5 -10 -11z"/>
<path d="M7585 2370 c3 -5 16 -10 28 -9 21 0 21 1 2 9 -28 12 -37 12 -30 0z"/>
<path d="M7735 2290 c-3 -5 1 -10 10 -10 9 0 13 5 10 10 -3 6 -8 10 -10 10 -2
0 -7 -4 -10 -10z"/>
<path d="M7996 2277 c3 -10 9 -15 12 -12 3 3 0 11 -7 18 -10 9 -11 8 -5 -6z"/>
<path d="M7928 2273 c7 -3 16 -2 19 1 4 3 -2 6 -13 5 -11 0 -14 -3 -6 -6z"/>
<path d="M7835 2260 c-8 -13 5 -13 25 0 13 8 13 10 -2 10 -9 0 -20 -4 -23 -10z"/>
<path d="M7938 2243 c7 -3 16 -2 19 1 4 3 -2 6 -13 5 -11 0 -14 -3 -6 -6z"/>
<path d="M7988 2233 c6 -2 18 -2 25 0 6 3 1 5 -13 5 -14 0 -19 -2 -12 -5z"/>
<path d="M8340 2190 c0 -5 7 -10 16 -10 8 0 12 5 9 10 -3 6 -10 10 -16 10 -5
0 -9 -4 -9 -10z"/>
<path d="M8365 2170 c-27 -7 -28 -8 -5 -8 14 0 34 3 45 8 25 11 2 11 -40 0z"/>
<path d="M8435 2150 c3 -5 14 -10 23 -10 15 0 15 2 2 10 -20 13 -33 13 -25 0z"/>
<path d="M8660 2121 c0 -5 -8 -11 -17 -13 -15 -3 -14 -5 5 -10 12 -3 20 -2 17
2 -3 5 0 10 7 12 9 3 9 6 0 12 -7 4 -12 3 -12 -3z"/>
<path d="M8740 2116 c0 -9 39 -13 51 -5 10 6 4 9 -18 9 -18 0 -33 -2 -33 -4z"/>
<path d="M8708 2093 c7 -3 16 -2 19 1 4 3 -2 6 -13 5 -11 0 -14 -3 -6 -6z"/>
<path d="M8820 2091 c0 -5 6 -12 13 -14 6 -3 -1 -6 -18 -7 -28 -2 -28 -3 10
-11 58 -14 71 -9 47 19 -19 22 -52 30 -52 13z"/>
<path d="M8750 2080 c19 -13 30 -13 30 0 0 6 -10 10 -22 10 -19 0 -20 -2 -8
-10z"/>
<path d="M8957 2039 c7 -7 15 -10 18 -7 3 3 -2 9 -12 12 -14 6 -15 5 -6 -5z"/>
<path d="M9005 2030 c3 -6 1 -10 -6 -10 -7 0 -10 -3 -6 -6 3 -3 13 -2 22 4 16
8 16 9 1 15 -10 4 -15 3 -11 -3z"/>
<path d="M11680 2001 c0 -5 7 -12 16 -15 24 -9 28 -7 14 9 -14 17 -30 20 -30
6z"/>
<path d="M7500 1727 c0 -53 -2 -97 -5 -97 -13 0 -55 24 -55 32 0 5 -4 6 -10 3
-16 -10 -11 -25 8 -25 10 0 23 -5 29 -11 6 -6 20 -8 32 -4 19 6 20 11 15 98
-4 51 -8 94 -10 96 -2 2 -4 -39 -4 -92z"/>
<path d="M7428 1623 c7 -3 16 -2 19 1 4 3 -2 6 -13 5 -11 0 -14 -3 -6 -6z"/>
<path d="M9770 1533 l1 -38 14 34 c18 41 18 41 0 41 -11 0 -15 -11 -15 -37z"/>
<path d="M9834 1493 c-10 -38 -23 -77 -29 -88 -7 -11 -13 -39 -14 -61 -2 -40
-4 -62 -17 -131 -6 -30 -4 -33 20 -33 19 0 26 5 26 19 0 11 7 26 15 35 8 8 15
26 15 40 0 14 5 28 10 31 6 3 10 13 10 21 0 8 -4 12 -10 9 -5 -3 -10 1 -10 9
0 9 6 15 12 14 7 -2 14 7 16 20 2 13 14 52 27 88 l23 64 -35 15 c-20 8 -37 15
-38 15 -2 0 -11 -30 -21 -67z"/>
<path d="M9756 1471 c-4 -7 -5 -15 -2 -18 9 -9 19 4 14 18 -4 11 -6 11 -12 0z"/>
<path d="M9072 1400 c0 -19 2 -27 5 -17 2 9 2 25 0 35 -3 9 -5 1 -5 -18z"/>
<path d="M9705 1307 c-10 -37 -1 -54 12 -25 6 14 8 31 3 38 -6 10 -10 7 -15
-13z"/>
<path d="M9762 1290 c0 -19 2 -27 5 -17 2 9 2 25 0 35 -3 9 -5 1 -5 -18z"/>
<path d="M9631 1274 c0 -11 3 -14 6 -6 3 7 2 16 -1 19 -3 4 -6 -2 -5 -13z"/>
<path d="M9676 1215 c-3 -8 -1 -15 4 -15 6 0 10 7 10 15 0 8 -2 15 -4 15 -2 0
-6 -7 -10 -15z"/>
<path d="M9730 1206 c0 -8 5 -18 10 -21 6 -3 10 3 10 14 0 12 -4 21 -10 21 -5
0 -10 -6 -10 -14z"/>
</g>
</svg>
